<svg width="16" height="32" viewBox="0 0 16 32" fill="none" xmlns="http://www.w3.org/2000/svg">
<path opacity="0.5" d="M2.06296 31.6207C1.95198 31.7407 1.81929 31.8361 1.67271 31.9013C1.52614 31.9664 1.36866 32 1.20956 32C1.05047 32 0.892986 31.9664 0.746413 31.9013C0.599839 31.8361 0.467146 31.7407 0.356162 31.6207C0.128614 31.3746 0.00127975 31.0447 0.00127972 30.7012C0.00127969 30.3578 0.128614 30.0279 0.356162 29.7818L13.1127 16.0027L0.356159 2.22092C0.241327 2.09711 0.150776 1.95069 0.0896809 1.79002C0.0285847 1.62935 -0.00186043 1.45758 8.50528e-05 1.28452C0.00202958 1.11145 0.0363266 0.940488 0.101015 0.781387C0.165704 0.622283 0.259517 0.47816 0.377099 0.357246C0.489099 0.241979 0.621584 0.151105 0.766969 0.0898203C0.912355 0.0285372 1.06779 -0.00195563 1.22437 9.09371e-05C1.38096 0.00213942 1.53563 0.0366891 1.67952 0.101758C1.82342 0.166827 1.95372 0.261138 2.06296 0.379298L15.6284 15.0406C15.8667 15.298 16 15.6433 16 16.0027C16 16.3622 15.8667 16.7075 15.6284 16.9649L2.06296 31.6207Z" fill="white"/>
</svg>
