<svg width="6" height="12" viewBox="0 0 6 12" fill="none" xmlns="http://www.w3.org/2000/svg">
<path opacity="0.8" d="M0.773612 11.8578C0.731993 11.9028 0.682233 11.9386 0.627268 11.963C0.572302 11.9874 0.513247 12 0.453587 12C0.393927 12 0.334871 11.9874 0.279905 11.963C0.22494 11.9386 0.17518 11.9028 0.133561 11.8578C0.0482311 11.7655 0.000480621 11.6418 0.000480609 11.513C0.000480598 11.3842 0.0482311 11.2605 0.133561 11.1682L4.91726 6.00103L0.13356 0.832846C0.0904984 0.786418 0.0565419 0.73151 0.0336308 0.671258C0.0107202 0.611007 -0.000696707 0.546594 3.28485e-05 0.481696C0.000761927 0.416797 0.0136232 0.352685 0.0378813 0.293022C0.0621399 0.233359 0.0973195 0.179312 0.141413 0.133969C0.183413 0.0907445 0.233095 0.0566659 0.287614 0.0336843C0.342133 0.0107026 0.400421 -0.000731932 0.459141 3.57703e-05C0.51786 0.000804427 0.575861 0.0137601 0.629822 0.0381608C0.683782 0.0625625 0.732644 0.0979285 0.773611 0.142239L5.86065 5.64022C5.95 5.73675 6 5.86622 6 6.00103C6 6.13584 5.95 6.26531 5.86065 6.36184L0.773612 11.8578Z" fill="white"/>
</svg>
