<svg width="390" height="375" viewBox="0 0 390 375" fill="none" xmlns="http://www.w3.org/2000/svg">
<mask id="mask0_2087_568" style="mask-type:alpha" maskUnits="userSpaceOnUse" x="0" y="0" width="390" height="375">
<rect width="389.183" height="375" fill="url(#paint0_radial_2087_568)"/>
</mask>
<g mask="url(#mask0_2087_568)">
<path opacity="0.05" fill-rule="evenodd" clip-rule="evenodd" d="M-17.0022 18.7542C-17.0022 22.1785 -16.9023 24.9802 -16.7804 24.9802C-16.6582 24.9802 -16.1157 23.9088 -15.5745 22.5996C-15.0335 21.2905 -14.2257 19.3448 -13.7798 18.2759L-12.9691 16.3327L-10.9091 15.566C-9.77592 15.1444 -7.7133 14.3897 -6.32545 13.8889C-4.93735 13.3884 -3.80186 12.8774 -3.80186 12.7533C-3.80186 12.6217 -6.54468 12.5282 -10.402 12.5282H-17.0022V18.7542ZM23.1747 13.1157C22.9909 13.4958 22.4223 13.8682 21.5627 14.1704C20.8323 14.4275 20.2313 14.74 20.2269 14.8648C20.2227 14.9898 20.8297 15.3233 21.5756 15.6061C22.8152 16.0763 22.9803 16.2338 23.493 17.4372C23.8018 18.1616 24.1461 18.7542 24.2584 18.7542C24.3707 18.7542 24.7199 18.1509 25.0339 17.4138C25.5572 16.1859 25.7128 16.0358 26.8845 15.6275C27.588 15.3824 28.2635 15.0892 28.3854 14.9764C28.5076 14.8633 27.9056 14.5296 27.0481 14.2346C25.858 13.8254 25.4516 13.5595 25.3328 13.1132C25.1081 12.2689 23.5829 12.2706 23.1747 13.1157ZM66.6648 12.8334C66.7311 13.0014 67.1222 14.0032 67.5337 15.0601C68.2629 16.9318 68.7181 17.4641 69.2009 17.0087C69.331 16.8859 69.8363 15.8275 70.3237 14.6568L71.2094 12.5282H68.8771C67.1193 12.5282 66.5742 12.6034 66.6648 12.8334ZM176.861 12.7533C176.861 12.8774 177.997 13.3884 179.385 13.8892C180.773 14.3897 182.835 15.14 183.967 15.556L186.025 16.3126L186.838 18.2659C187.285 19.3402 188.093 21.2902 188.634 22.5996C189.347 24.3246 189.74 24.9802 190.062 24.9802C190.383 24.9802 190.777 24.3246 191.489 22.5996C192.03 21.2902 192.839 19.3402 193.286 18.2659L194.099 16.3126L196.157 15.556C197.289 15.14 199.351 14.3897 200.738 13.8892C202.126 13.3884 203.262 12.8774 203.262 12.7533C203.262 12.6188 197.949 12.5282 190.062 12.5282C182.175 12.5282 176.861 12.6188 176.861 12.7533ZM230.239 13.1157C230.055 13.4958 229.486 13.8682 228.627 14.1704C227.896 14.4275 227.295 14.74 227.291 14.8648C227.287 14.9898 227.903 15.327 228.661 15.6144C229.955 16.1051 230.07 16.2196 230.561 17.5071C230.848 18.2605 231.185 18.8453 231.309 18.8062C231.433 18.7671 231.784 18.1494 232.09 17.4333C232.592 16.255 232.767 16.0861 233.936 15.6556C234.646 15.3939 235.325 15.0902 235.444 14.9808C235.563 14.8711 234.957 14.5247 234.098 14.2105C232.959 13.7937 232.497 13.4892 232.389 13.0837C232.172 12.267 230.637 12.2899 230.239 13.1157ZM273.729 12.8334C273.795 13.0014 274.186 14.0032 274.598 15.0601C275.327 16.9318 275.782 17.4641 276.265 17.0087C276.395 16.8859 276.9 15.8275 277.388 14.6568L278.273 12.5282H275.941C274.183 12.5282 273.638 12.6034 273.729 12.8334ZM383.925 12.7533C383.925 12.8774 385.061 13.3884 386.449 13.8892C387.837 14.3897 389.899 15.14 391.031 15.556L393.089 16.3126L393.901 18.2659C394.348 19.3402 395.157 21.2902 395.698 22.5996C396.239 23.9088 396.782 24.9802 396.904 24.9802C397.026 24.9802 397.126 22.1785 397.126 18.7542V12.5282H390.526C386.668 12.5282 383.925 12.6217 383.925 12.7533ZM122.044 21.0441C121.489 22.3931 121.373 22.5086 120.118 22.9586C119.383 23.222 118.743 23.546 118.696 23.6786C118.65 23.8114 119.258 24.1271 120.048 24.3805C121.442 24.8273 121.501 24.8837 122.031 26.2537C122.331 27.0303 122.663 27.6659 122.769 27.6659C122.875 27.6659 123.215 27.0274 123.524 26.2473C124.068 24.8762 124.134 24.8134 125.51 24.3722C126.294 24.121 126.985 23.8382 127.047 23.744C127.109 23.6495 126.463 23.3267 125.612 23.0267C124.102 22.4937 124.053 22.4475 123.511 21.0449C123.205 20.255 122.883 19.6087 122.795 19.6087C122.706 19.6087 122.368 20.2548 122.044 21.0441ZM329.106 21.0476C328.529 22.4517 328.477 22.5 326.92 23.0489L325.326 23.6114L326.607 24.1705C327.312 24.4782 328.028 24.7311 328.198 24.7328C328.369 24.7345 328.763 25.3952 329.074 26.2009C329.386 27.0067 329.727 27.6659 329.833 27.6659C329.939 27.6659 330.279 27.0274 330.588 26.2473C331.132 24.8762 331.198 24.8134 332.574 24.3722C333.358 24.121 334.049 23.8382 334.111 23.744C334.173 23.6495 333.527 23.3267 332.676 23.0267C331.165 22.4937 331.117 22.4475 330.575 21.0449C330.269 20.255 329.947 19.6087 329.859 19.6087C329.77 19.6087 329.432 20.2562 329.106 21.0476ZM152.362 33.9529C152.296 34.188 151.926 35.0911 151.54 35.9601L150.839 37.54L148.829 38.2534C147.723 38.646 146.858 39.0775 146.905 39.212C146.953 39.3468 147.885 39.786 148.977 40.1884L150.963 40.9196L151.707 42.7647C152.117 43.7794 152.567 44.6459 152.708 44.6901C152.848 44.7343 153.317 43.9171 153.749 42.8738L154.534 40.9772L156.564 40.2098C157.68 39.7877 158.632 39.3333 158.679 39.2C158.727 39.0667 157.824 38.6424 156.674 38.2571L154.583 37.5561L153.772 35.5409C152.968 33.5454 152.596 33.1259 152.362 33.9529ZM359.426 33.9529C359.36 34.188 358.99 35.0911 358.604 35.9601L357.903 37.54L355.893 38.2534C354.787 38.646 353.922 39.0775 353.969 39.212C354.017 39.3468 354.94 39.7826 356.02 40.1805L357.985 40.9045L358.752 42.7576C359.174 43.777 359.634 44.6466 359.773 44.6906C359.913 44.7345 360.381 43.9171 360.813 42.8738L361.598 40.9772L363.628 40.2098C364.744 39.7877 365.692 39.3465 365.733 39.2296C365.774 39.1126 365.08 38.7569 364.19 38.4392C361.729 37.5605 361.538 37.3896 360.757 35.3707C360.051 33.5434 359.66 33.1269 359.426 33.9529ZM29.201 39.38L28.4502 41.3278L26.4137 42.0217C25.2935 42.4036 24.3723 42.8179 24.3666 42.9427C24.3609 43.0677 25.2603 43.5177 26.3658 43.9427C28.5537 44.7841 28.3508 44.5407 29.8758 48.1547C30.1157 48.7228 30.1372 48.7275 30.4532 48.2767C30.6339 48.0194 31.0662 47.1085 31.414 46.2529C31.8054 45.2893 32.243 44.6242 32.5637 44.5055C34.9833 43.6104 35.9601 43.2134 36.1459 43.0491C36.2658 42.9434 35.392 42.511 34.2045 42.0881L32.045 41.3195L31.2691 39.3768C30.8423 38.3081 30.3712 37.4336 30.2224 37.4331C30.0735 37.4326 29.6139 38.3086 29.201 39.38ZM236.273 39.3587L235.531 41.2851L233.368 42.0601C232.179 42.4861 231.265 42.9246 231.337 43.0345C231.409 43.1444 232.379 43.5807 233.493 44.0043L235.518 44.7743L236.279 46.7178C236.697 47.7867 237.156 48.661 237.298 48.661C237.441 48.661 237.9 47.7836 238.32 46.7112L239.084 44.7614L241.231 43.9654C242.412 43.5279 243.379 43.0955 243.38 43.0049C243.38 42.9144 242.42 42.4981 241.245 42.0798L239.109 41.3195L238.333 39.3768C237.906 38.3081 237.435 37.4336 237.286 37.4331C237.137 37.4326 236.682 38.2991 236.273 39.3587ZM72.5253 43.7191C71.278 46.9456 71.2837 46.939 69.1235 47.7252C68.0203 48.1266 67.1175 48.5487 67.1175 48.6632C67.1175 48.7777 68.0203 49.1975 69.1235 49.5962L71.1294 50.3208L71.94 52.2291C72.3857 53.2788 72.8672 54.1741 73.0095 54.219C73.1522 54.2637 73.5883 53.4734 73.9791 52.4623C74.3702 51.4515 74.8206 50.5286 74.9803 50.4116C75.14 50.2947 76.115 49.8911 77.1472 49.5146C78.1794 49.1381 79.0237 48.7475 79.0237 48.6461C79.0237 48.5451 78.1794 48.1586 77.1472 47.7875C76.115 47.4163 75.1405 46.9947 74.981 46.8504C74.8219 46.7061 74.3666 45.7915 73.9695 44.8178C73.5725 43.8441 73.1436 43.0477 73.0163 43.0477C72.8889 43.0477 72.6681 43.3497 72.5253 43.7191ZM279.589 43.7191C278.342 46.9456 278.348 46.939 276.187 47.7252C275.084 48.1266 274.181 48.5487 274.181 48.6632C274.181 48.7777 275.084 49.1975 276.187 49.5962L278.193 50.3208L279.004 52.2291C279.45 53.2788 279.931 54.1741 280.073 54.219C280.216 54.2637 280.652 53.4734 281.043 52.4623C281.434 51.4515 281.885 50.5286 282.044 50.4116C282.204 50.2947 283.179 49.8911 284.211 49.5146C285.243 49.1381 286.088 48.7475 286.088 48.6461C286.088 48.5451 285.243 48.1573 284.211 47.7848C283.179 47.4119 282.204 47.0159 282.044 46.9046C281.885 46.7933 281.436 45.8799 281.047 44.8749C280.659 43.87 280.23 43.0477 280.095 43.0477C279.96 43.0477 279.732 43.3497 279.589 43.7191ZM112.264 44.9438C112.111 45.0424 111.249 46.9358 110.348 49.1516C109.447 51.3673 108.602 53.3115 108.471 53.4719C108.339 53.6325 107.629 53.9492 106.893 54.1758C106.156 54.4021 105.437 54.6685 105.295 54.7671C105.153 54.8658 104.396 55.1419 103.613 55.3804C101.234 56.1049 99.4713 56.9181 99.4713 57.2905C99.4713 57.592 101.433 58.6736 101.981 58.6736C102.319 58.6736 108.137 60.9125 108.401 61.1445C108.543 61.2695 109.418 63.2095 110.345 65.4553C112.62 70.9693 112.539 70.9727 114.861 65.2751C115.848 62.8528 116.764 60.871 116.897 60.871C117.388 60.871 125.49 57.8437 125.674 57.5918C126.013 57.1257 125.73 56.8674 124.3 56.3388C123.527 56.0528 121.473 55.2974 119.735 54.6599L116.574 53.5007L115.359 50.5327C113.174 45.2001 113.046 44.915 112.792 44.8395C112.655 44.7983 112.417 44.8454 112.264 44.9438ZM319.327 44.9438C319.174 45.0424 318.316 46.9358 317.42 49.1516C316.524 51.3673 315.66 53.3005 315.499 53.4477C315.338 53.5949 313.25 54.4138 310.859 55.2674C305.2 57.2878 305.201 57.2648 310.806 59.3289C313.084 60.1676 315.078 60.8576 315.238 60.8625C315.398 60.8671 315.9 61.7776 316.355 62.8853C319.729 71.1094 319.59 71.0076 321.376 66.5557C322.064 64.8393 322.781 63.105 322.968 62.7022C323.155 62.2993 323.349 61.7668 323.398 61.519C323.449 61.2653 323.885 60.9333 324.394 60.7594C324.893 60.5897 326.116 60.1554 327.112 59.7945C328.109 59.4337 329.764 58.8504 330.79 58.4983C332.536 57.8992 333.223 57.3576 332.75 56.9543C332.639 56.8593 331.732 56.4852 330.736 56.1234C329.739 55.7616 327.733 55.0193 326.277 54.4741L323.631 53.4829L322.419 50.5237C320.239 45.2021 320.11 44.915 319.856 44.8395C319.719 44.7983 319.481 44.8454 319.327 44.9438ZM-13.6312 47.9999C-14.4346 50.0085 -14.4491 50.0254 -15.7212 50.4517C-16.9142 50.8511 -17.0022 50.9375 -17.0022 51.7057C-17.0022 52.4755 -16.9183 52.5568 -15.7445 52.9245C-14.5107 53.311 -14.4721 53.3542 -13.7119 55.1907C-13.2857 56.2203 -12.8143 57.1013 -12.6645 57.1484C-12.5146 57.1955 -12.0422 56.3768 -11.6149 55.3292L-10.8379 53.4243L-8.82653 52.683C-7.72029 52.2753 -6.77608 51.8309 -6.72845 51.6959C-6.68083 51.5609 -7.57664 51.1255 -8.71911 50.7283L-10.7965 50.0061L-11.6043 47.9918C-12.0484 46.8841 -12.5042 45.9775 -12.6168 45.9775C-12.7297 45.9775 -13.186 46.8877 -13.6312 47.9999ZM193.433 48.0006L192.623 50.0234L190.566 50.7129C189.435 51.0921 188.509 51.5277 188.51 51.681C188.51 51.8341 189.425 52.264 190.543 52.6364L192.575 53.3134L193.351 55.188C193.778 56.2191 194.248 57.1008 194.396 57.1474C194.544 57.1938 194.99 56.4301 195.387 55.4503C195.784 54.4702 196.187 53.5798 196.284 53.4711C196.38 53.3627 197.311 52.9775 198.351 52.6151C199.392 52.2526 200.284 51.8424 200.333 51.7032C200.382 51.5643 199.487 51.1255 198.345 50.7283L196.267 50.0061L195.46 47.9918C195.015 46.8841 194.56 45.9775 194.447 45.9775C194.334 45.9775 193.878 46.888 193.433 48.0006ZM396.284 51.1634C395.384 51.4495 395.366 51.9796 396.25 52.1888C397.076 52.3844 397.189 52.2948 397.08 51.5316C397.005 50.9988 396.923 50.9607 396.284 51.1634ZM36.9675 68.0348C36.7371 68.5507 36.3486 69.4819 36.1038 70.104C35.6733 71.1971 35.5889 71.2606 33.5934 71.9896C32.4576 72.4044 31.5471 72.8442 31.5696 72.9665C31.5924 73.089 32.5241 73.5341 33.6402 73.9553L35.6697 74.7215L36.4462 76.6066C36.8733 77.6433 37.3316 78.5098 37.4649 78.532C37.5982 78.5542 38.0654 77.6999 38.5031 76.6337L39.2988 74.6951L41.344 73.948C42.4689 73.5371 43.3792 73.0971 43.367 72.9701C43.3546 72.8432 42.4508 72.41 41.3585 72.0074C39.4207 71.2938 39.357 71.2435 38.7503 69.9494C38.4084 69.2202 38.1286 68.4931 38.1286 68.3341C38.1286 68.1749 37.9614 67.8316 37.7572 67.5709C37.4039 67.1199 37.3656 67.1424 36.9675 68.0348ZM244.018 68.0585C243.795 68.5612 243.413 69.4819 243.168 70.104C242.737 71.1971 242.653 71.2606 240.657 71.9896C239.522 72.4044 238.611 72.8442 238.634 72.9665C238.656 73.089 239.588 73.5341 240.704 73.9553L242.734 74.7215L243.51 76.6066C243.937 77.6433 244.396 78.5098 244.529 78.532C244.662 78.5542 245.13 77.6989 245.568 76.6317L246.364 74.6912L248.385 73.9275C249.496 73.5073 250.426 73.0783 250.452 72.9743C250.478 72.8703 249.568 72.4335 248.432 72.0038L246.364 71.2222L245.584 69.3544C245.155 68.3273 244.718 67.4097 244.614 67.3155C244.509 67.2213 244.241 67.5555 244.018 68.0585ZM85.8788 78.3708C85.4031 79.6915 85.3128 79.7813 83.8845 80.3629C83.0617 80.6977 82.3885 81.0527 82.3885 81.1513C82.3885 81.2502 82.9929 81.5344 83.7316 81.7829C84.9758 82.2014 85.123 82.3379 85.7339 83.6385C86.0965 84.4108 86.4547 85.0424 86.5298 85.0424C86.6048 85.0424 86.9631 84.4108 87.3257 83.6385C87.9376 82.3355 88.0822 82.2019 89.3396 81.779C90.0845 81.5283 90.6568 81.2177 90.6113 81.0888C90.5657 80.9599 89.9044 80.6156 89.1419 80.3239C87.8855 79.8429 87.7082 79.6783 87.2537 78.5723C86.9781 77.9009 86.668 77.2697 86.5647 77.1696C86.4617 77.0698 86.1529 77.6103 85.8788 78.3708ZM292.943 78.3696C292.467 79.6915 292.377 79.7813 290.948 80.3629C290.126 80.6977 289.452 81.0527 289.452 81.1513C289.452 81.2502 290.057 81.5344 290.796 81.7829C292.04 82.2014 292.187 82.3379 292.798 83.6385C293.16 84.4108 293.519 85.0424 293.594 85.0424C293.669 85.0424 294.027 84.4108 294.39 83.6385C295 82.3379 295.148 82.2014 296.392 81.7829C297.131 81.5344 297.735 81.2502 297.735 81.1513C297.735 81.0527 297.062 80.6977 296.239 80.3629C294.81 79.7813 294.721 79.6915 294.244 78.3696C293.97 77.6081 293.677 76.9853 293.594 76.9853C293.51 76.9853 293.218 77.6081 292.943 78.3696ZM-9.93044 81.5632C-10.0003 81.7981 -10.7763 83.7435 -11.6548 85.8862L-13.2523 89.7819L-15.0625 90.4307L-16.8728 91.0794L-16.946 93.5217L-17.0195 95.9637L-15.1477 96.6681L-13.2758 97.3723L-12.4602 99.3255C-12.0117 100.4 -11.2106 102.35 -10.6798 103.659C-9.95917 105.437 -9.5981 106.04 -9.25437 106.04C-8.81022 106.04 -8.16056 104.667 -5.87354 98.8973C-5.56734 98.1245 -5.12164 97.3942 -4.883 97.2744C-4.6441 97.1545 -2.55612 96.3712 -0.242952 95.5335C3.02659 94.3496 3.96303 93.9131 3.96303 93.5732C3.96303 93.1432 2.75611 92.6337 -3.3823 90.4724C-5.40946 89.7588 -5.09291 90.2266 -7.42781 84.4931C-8.5369 81.77 -8.8902 81.1359 -9.29915 81.1359C-9.57662 81.1359 -9.86055 81.3283 -9.93044 81.5632ZM152.245 81.8074C150.989 85.0566 150.991 85.0544 148.917 85.7717C147.857 86.1382 146.951 86.5518 146.902 86.6907C146.853 86.8296 147.663 87.2496 148.701 87.6241C149.74 87.9984 150.701 88.3949 150.837 88.5053C150.972 88.6154 151.386 89.4946 151.755 90.459C152.125 91.4234 152.552 92.2513 152.703 92.299C152.855 92.3466 153.244 91.6947 153.568 90.8504C154.458 88.5341 154.629 88.3615 156.78 87.6217C157.86 87.2501 158.743 86.8572 158.743 86.7483C158.743 86.6394 157.899 86.2456 156.867 85.873C155.835 85.5002 154.86 85.1042 154.7 84.9928C154.54 84.8815 154.092 83.9681 153.703 82.9632C153.314 81.9582 152.886 81.1359 152.751 81.1359C152.615 81.1359 152.388 81.4382 152.245 81.8074ZM197.033 81.8074C194.26 88.8832 193.843 89.7463 193.051 90.0481C192.617 90.2134 190.544 90.9781 188.444 91.7469C185.542 92.8097 184.626 93.2477 184.626 93.5732C184.626 93.9013 185.695 94.3945 189.206 95.6883L193.786 97.3757L194.603 99.3272C195.052 100.401 195.853 102.35 196.384 103.659C197.105 105.437 197.466 106.04 197.81 106.04C198.254 106.04 198.903 104.667 201.19 98.8973C201.497 98.1245 201.942 97.3942 202.181 97.2744C202.42 97.1545 204.508 96.3712 206.821 95.5335C210.079 94.3538 211.027 93.9126 211.027 93.5754C211.027 93.1633 208.16 91.9703 203.102 90.2773C201.988 89.9043 201.726 89.696 201.451 88.9643C201.271 88.4857 200.481 86.5286 199.697 84.6151C198.562 81.8469 198.171 81.1359 197.784 81.1359C197.488 81.1359 197.193 81.4006 197.033 81.8074ZM359.309 81.8074C358.055 85.0512 358.058 85.0468 355.987 85.7536C354.93 86.1145 354.022 86.5298 353.971 86.6765C353.919 86.8233 354.727 87.2496 355.765 87.6241C356.804 87.9984 357.765 88.3949 357.901 88.5053C358.036 88.6154 358.449 89.4946 358.819 90.459C359.189 91.4234 359.616 92.2513 359.767 92.299C359.919 92.3466 360.308 91.6947 360.632 90.8504C361.522 88.5341 361.693 88.3615 363.844 87.6217C364.924 87.2501 365.807 86.8572 365.807 86.7483C365.807 86.6394 364.963 86.2456 363.931 85.873C362.899 85.5002 361.924 85.1042 361.764 84.9928C361.604 84.8815 361.156 83.9681 360.767 82.9632C360.378 81.9582 359.95 81.1359 359.815 81.1359C359.679 81.1359 359.452 81.4382 359.309 81.8074ZM394.343 92.1681C392.35 92.8944 391.69 93.2436 391.69 93.5715C391.69 93.8996 392.349 94.2476 394.343 94.9727L396.996 95.9373L397.074 94.7625C397.118 94.1164 397.118 93.0507 397.074 92.3944L396.996 91.201L394.343 92.1681ZM325.169 101.544C325.016 101.935 324.639 102.873 324.333 103.628L323.776 104.999L321.757 105.703C320.646 106.09 319.737 106.529 319.737 106.679C319.736 106.83 320.638 107.273 321.741 107.663L323.747 108.374L324.558 110.31C325.004 111.375 325.472 112.279 325.599 112.319C325.725 112.359 326.181 111.498 326.611 110.407L327.394 108.422L329.453 107.659C330.586 107.238 331.512 106.801 331.512 106.686C331.512 106.572 330.585 106.132 329.453 105.709L327.393 104.941L326.655 103.11C325.746 100.853 325.53 100.626 325.169 101.544ZM117.486 103.075L116.737 104.991L114.705 105.698C113.588 106.088 112.673 106.529 112.673 106.679C112.672 106.83 113.568 107.271 114.664 107.66L116.657 108.368L117.481 110.307C117.935 111.374 118.411 112.28 118.541 112.321C118.67 112.361 119.12 111.501 119.541 110.41L120.307 108.424L122.378 107.66C123.517 107.239 124.427 106.793 124.401 106.669C124.375 106.545 123.447 106.105 122.339 105.692L120.323 104.941L119.569 103.049C119.155 102.008 118.686 101.157 118.526 101.158C118.367 101.158 117.899 102.021 117.486 103.075ZM72.5359 103.293C72.3909 103.662 72.0827 104.459 71.8505 105.063C71.2611 106.598 71.221 106.631 69.0432 107.38C67.9714 107.749 67.1346 108.163 67.1835 108.302C67.2322 108.44 68.1562 108.879 69.2368 109.277L71.2014 110L71.9688 111.854C72.3907 112.873 72.8501 113.743 72.9899 113.787C73.1296 113.831 73.5973 113.013 74.0291 111.97L74.8144 110.073L76.8444 109.306C77.9607 108.884 78.9127 108.429 78.9598 108.296C79.0069 108.163 78.1069 107.739 76.9601 107.355L74.8749 106.656L74.0679 104.639C73.624 103.529 73.1568 102.622 73.0297 102.622C72.9029 102.622 72.6806 102.924 72.5359 103.293ZM279.155 104.489C278.325 106.532 278.353 106.507 275.624 107.622C274.75 107.98 274.194 108.337 274.33 108.454C274.462 108.567 275.401 108.961 276.418 109.331L278.266 110.002L279.033 111.855C279.455 112.873 279.921 113.745 280.07 113.792C280.218 113.838 280.684 113.02 281.104 111.973L281.868 110.068L283.903 109.304C285.022 108.883 285.976 108.43 286.023 108.297C286.071 108.163 285.172 107.74 284.027 107.356L281.945 106.658L281.265 104.945C280.208 102.28 280.065 102.25 279.155 104.489ZM36.8748 103.619C35.9736 105.853 35.8933 105.947 34.3911 106.522C33.5825 106.832 33.0154 107.172 33.1306 107.278C33.246 107.384 33.9216 107.685 34.6318 107.946C35.7828 108.37 35.98 108.555 36.4436 109.643C36.7299 110.314 37.063 110.904 37.1841 110.954C37.3052 111.004 37.6588 110.447 37.9702 109.717C38.5062 108.459 38.6142 108.362 40.0147 107.887C40.8279 107.611 41.4934 107.321 41.4934 107.241C41.4934 107.161 40.8176 106.821 39.9914 106.485C38.6185 105.926 38.4485 105.77 38.016 104.675C37.3992 103.112 37.1663 102.897 36.8748 103.619ZM243.817 103.893C243.611 104.358 243.359 104.987 243.257 105.289C243.135 105.654 242.535 106.07 241.479 106.523L239.887 107.208L240.922 107.609C241.491 107.83 242.199 108.106 242.495 108.222C242.792 108.338 243.284 108.989 243.595 109.678C243.904 110.363 244.227 110.95 244.313 110.984C244.398 111.017 244.723 110.447 245.034 109.717C245.57 108.459 245.678 108.362 247.079 107.887C247.892 107.611 248.557 107.321 248.557 107.241C248.557 107.161 247.882 106.821 247.055 106.485C245.682 105.926 245.512 105.77 245.08 104.675C244.429 103.026 244.25 102.915 243.817 103.893ZM169.489 121.496C169.292 121.94 169.06 122.574 168.971 122.906C168.849 123.367 168.473 123.624 167.379 123.995C166.591 124.262 165.945 124.589 165.943 124.721C165.941 124.853 166.557 125.185 167.311 125.458C168.564 125.911 168.729 126.062 169.22 127.214C169.515 127.907 169.831 128.544 169.923 128.63C170.014 128.716 170.337 128.146 170.641 127.363C171.158 126.028 171.275 125.908 172.505 125.45C173.227 125.182 173.833 124.856 173.851 124.726C173.87 124.597 173.278 124.269 172.535 123.999C171.266 123.536 171.153 123.424 170.627 122.098C170.32 121.323 170.019 120.689 169.958 120.689C169.897 120.689 169.686 121.052 169.489 121.496ZM376.524 121.561C376.29 122.089 376.007 122.749 375.894 123.029C375.77 123.336 375.171 123.723 374.382 124.005C373.664 124.263 373.06 124.583 373.04 124.718C373.02 124.852 373.611 125.182 374.354 125.45C375.579 125.893 375.75 126.051 376.209 127.159C376.487 127.831 376.812 128.474 376.931 128.589C377.05 128.704 377.398 128.152 377.703 127.362C378.24 125.974 378.306 125.91 379.69 125.441C380.478 125.173 381.106 124.847 381.086 124.714C381.066 124.582 380.432 124.266 379.678 124.012C378.394 123.579 378.278 123.471 377.845 122.302C377.199 120.561 377.014 120.457 376.524 121.561ZM11.0734 127.627C10.8492 128.133 10.4667 129.053 10.2234 129.671C9.80094 130.744 9.69016 130.83 7.80925 131.541C6.72501 131.951 5.80461 132.396 5.76423 132.531C5.72385 132.665 6.59663 133.106 7.70416 133.51L9.7176 134.246L10.4832 136.074C11.6446 138.848 11.5695 138.865 12.8782 135.506C13.2804 134.475 13.4986 134.261 14.6713 133.755C15.4059 133.438 16.3302 133.102 16.7257 133.009C17.8262 132.748 17.4346 132.354 15.3585 131.631C14.3178 131.268 13.3886 130.883 13.2941 130.775C13.1994 130.666 12.8497 129.808 12.5168 128.868C12.184 127.928 11.8149 127.057 11.6964 126.933C11.5732 126.803 11.3066 127.1 11.0734 127.627ZM218.135 127.632C217.912 128.135 217.531 129.053 217.287 129.671C216.865 130.744 216.754 130.83 214.873 131.541C213.789 131.951 212.869 132.396 212.828 132.531C212.788 132.665 213.659 133.105 214.765 133.509L216.775 134.243L217.589 136.159C218.037 137.212 218.516 138.09 218.653 138.11C218.79 138.13 219.22 137.334 219.609 136.341C219.997 135.349 220.409 134.449 220.524 134.341C220.639 134.234 221.592 133.837 222.641 133.46C223.69 133.083 224.564 132.681 224.582 132.567C224.601 132.452 223.684 132.013 222.545 131.59L220.474 130.822L219.691 128.943C219.26 127.91 218.824 126.987 218.724 126.891C218.623 126.796 218.358 127.129 218.135 127.632ZM141.258 135.888C138.672 142.211 139.199 141.441 136.86 142.312C135.728 142.733 133.666 143.487 132.278 143.988C128.768 145.254 128.828 145.43 133.313 147.056C139.51 149.301 138.835 148.839 139.954 151.602C142.479 157.838 142.461 157.801 142.951 157.801C143.309 157.801 143.627 157.303 144.237 155.786C146.769 149.487 146.888 149.243 147.579 148.915C147.954 148.738 150.037 147.956 152.208 147.178C157.121 145.418 157.187 145.271 153.631 143.988C152.244 143.487 150.176 142.732 149.037 142.309L146.967 141.541L146.161 139.599C145.718 138.531 144.92 136.587 144.387 135.277C143.055 132.003 142.828 132.047 141.258 135.888ZM348.322 135.888C345.736 142.211 346.263 141.441 343.924 142.312C342.792 142.733 340.73 143.487 339.342 143.988C335.832 145.254 335.892 145.43 340.377 147.056C346.574 149.301 345.899 148.839 347.018 151.602C349.531 157.809 349.527 157.801 350.005 157.801C350.37 157.801 350.852 156.861 352.236 153.452L354.001 149.104L358.61 147.433C364.25 145.389 364.309 145.291 360.695 143.988C359.308 143.487 357.24 142.732 356.101 142.309L354.031 141.541L353.225 139.599C352.782 138.531 351.984 136.587 351.451 135.277C350.119 132.003 349.892 132.047 348.322 135.888ZM48.2318 136.661C47.7087 137.877 47.549 138.027 46.2602 138.521C45.4892 138.816 44.8582 139.146 44.8582 139.254C44.8582 139.362 45.4315 139.629 46.1324 139.849C47.6059 140.311 47.7335 140.434 48.3511 141.992C48.604 142.629 48.8957 143.151 48.9994 143.151C49.1032 143.151 49.3949 142.629 49.6478 141.992C50.2654 140.434 50.393 140.311 51.8665 139.849C52.5674 139.629 53.1407 139.367 53.1407 139.265C53.1407 139.164 52.4711 138.808 51.6524 138.474C50.2695 137.91 50.1303 137.778 49.6853 136.603C49.4218 135.907 49.1151 135.338 49.0036 135.338C48.892 135.338 48.5447 135.934 48.2318 136.661ZM255.362 136.6C254.93 137.775 254.797 137.903 253.41 138.471C252.592 138.806 251.922 139.158 251.922 139.252C251.922 139.346 252.475 139.618 253.152 139.857C254.783 140.432 254.84 140.485 255.386 141.916C255.645 142.595 255.946 143.151 256.054 143.151C256.163 143.151 256.459 142.629 256.712 141.992C257.329 140.434 257.457 140.311 258.93 139.849C259.631 139.629 260.205 139.353 260.205 139.235C260.205 139.117 259.603 138.824 258.868 138.583C257.622 138.176 257.486 138.05 256.884 136.742C256.528 135.97 256.145 135.338 256.032 135.338C255.918 135.338 255.617 135.906 255.362 136.6ZM93.646 139.062C93.5831 139.23 93.2073 140.179 92.8113 141.171L92.091 142.975L89.9062 143.758C88.7045 144.188 87.6805 144.656 87.6303 144.798C87.5801 144.94 88.5637 145.431 89.8159 145.89L92.0926 146.723L92.9029 148.773C93.3486 149.9 93.8327 150.86 93.9784 150.906C94.1241 150.951 94.6366 150.033 95.1172 148.864L95.9913 146.74L98.1844 145.943C99.3903 145.504 100.377 145.011 100.377 144.847C100.377 144.684 99.4011 144.2 98.2079 143.773L96.0389 142.996L95.1398 140.876C94.2817 138.854 93.8989 138.389 93.646 139.062ZM300.663 139.184C300.574 139.419 300.186 140.372 299.801 141.303L299.102 142.994L296.944 143.767C295.757 144.192 294.744 144.656 294.694 144.798C294.644 144.94 295.628 145.431 296.88 145.89L299.156 146.723L299.967 148.773C300.413 149.9 300.897 150.86 301.042 150.906C301.188 150.951 301.698 150.038 302.177 148.875L303.046 146.761L305.319 145.903C306.57 145.431 307.552 144.932 307.503 144.793C307.454 144.654 306.444 144.193 305.258 143.768L303.103 142.996L302.204 140.876C301.303 138.755 300.966 138.384 300.663 139.184ZM68.4171 161.937C68.0946 162.751 67.7211 163.416 67.5868 163.416C67.0456 163.416 64.7746 164.476 64.9682 164.639C65.0826 164.734 65.7649 165.007 66.4844 165.245C67.7201 165.652 67.8257 165.756 68.3822 167.11C68.7065 167.898 69.0502 168.544 69.1462 168.544C69.2423 168.544 69.5606 167.915 69.8536 167.146C70.3586 165.821 70.4583 165.722 71.7542 165.254C72.5064 164.982 73.1392 164.666 73.1609 164.551C73.1824 164.437 72.5744 164.107 71.8099 163.816C70.5496 163.339 70.3723 163.175 69.9152 162.071C69.6378 161.401 69.3191 160.764 69.2071 160.656C69.095 160.547 68.7396 161.124 68.4171 161.937ZM185.263 162.257C184.876 163.23 184.429 164.149 184.269 164.3C184.11 164.45 183.132 164.88 182.096 165.257C181.06 165.632 180.251 166.049 180.297 166.181C180.344 166.313 181.268 166.739 182.351 167.128L184.32 167.835L185.149 169.776C185.605 170.844 186.069 171.718 186.179 171.718C186.29 171.718 186.753 170.844 187.209 169.776L188.039 167.835L190.008 167.128C191.091 166.739 192.015 166.313 192.061 166.181C192.108 166.049 191.299 165.632 190.263 165.257C189.227 164.88 188.249 164.45 188.09 164.3C187.931 164.149 187.475 163.23 187.078 162.257C186.681 161.283 186.268 160.486 186.161 160.486C186.054 160.486 185.649 161.283 185.263 162.257ZM275.465 161.925C275.148 162.745 274.78 163.416 274.648 163.416C274.109 163.416 271.839 164.477 272.032 164.639C272.147 164.734 272.829 165.007 273.548 165.245C274.784 165.652 274.89 165.756 275.446 167.11C275.77 167.898 276.114 168.544 276.21 168.544C276.306 168.544 276.625 167.915 276.918 167.146C277.423 165.821 277.522 165.722 278.818 165.254C279.57 164.982 280.203 164.666 280.225 164.551C280.246 164.437 279.638 164.107 278.874 163.816C277.614 163.339 277.436 163.175 276.979 162.071C276.702 161.401 276.377 160.758 276.258 160.643C276.139 160.528 275.782 161.105 275.465 161.925ZM392.326 162.257C391.94 163.23 391.493 164.149 391.333 164.3C391.174 164.45 390.196 164.88 389.16 165.257C388.124 165.632 387.314 166.049 387.361 166.181C387.408 166.313 388.332 166.739 389.415 167.128L391.384 167.835L392.213 169.776C392.669 170.844 393.133 171.718 393.243 171.718C393.354 171.718 393.816 170.847 394.271 169.783C395.022 168.026 395.19 167.813 396.112 167.465C397.044 167.113 397.126 167.008 397.126 166.146C397.126 165.285 397.038 165.171 396.05 164.74C395.072 164.313 394.904 164.099 394.198 162.379C393.771 161.338 393.334 160.486 393.226 160.486C393.118 160.486 392.713 161.283 392.326 162.257ZM-17.0022 166.122C-17.0022 166.648 -16.9582 167.079 -16.9044 167.079C-16.5562 167.079 -14.9316 166.302 -14.9316 166.136C-14.9316 166.024 -15.3974 165.759 -15.9669 165.548L-17.0022 165.165V166.122ZM17.3062 172.559C16.9198 173.559 16.4674 174.472 16.3012 174.589C16.1348 174.705 15.1541 175.105 14.1221 175.478C13.0902 175.851 12.2456 176.231 12.2456 176.324C12.2456 176.417 13.2012 176.833 14.3693 177.25L16.4932 178.007L17.2811 179.986C17.7147 181.075 18.1816 181.932 18.3188 181.891C18.456 181.849 18.9219 180.959 19.3541 179.911L20.1399 178.008L22.0811 177.286C23.1488 176.889 24.1217 176.473 24.2434 176.362C24.3648 176.251 23.4687 175.803 22.252 175.367L20.0395 174.574L19.3176 172.657C18.9206 171.603 18.4637 170.741 18.3025 170.741C18.1412 170.741 17.6929 171.559 17.3062 172.559ZM224.37 172.559C223.984 173.559 223.531 174.472 223.365 174.589C223.199 174.705 222.218 175.105 221.186 175.478C220.154 175.851 219.31 176.231 219.31 176.324C219.31 176.417 220.265 176.833 221.433 177.25L223.557 178.007L224.345 179.986C224.779 181.075 225.246 181.932 225.383 181.891C225.52 181.849 225.986 180.959 226.418 179.911L227.204 178.008L229.145 177.286C230.213 176.889 231.186 176.473 231.307 176.362C231.429 176.251 230.533 175.803 229.316 175.367L227.103 174.574L226.382 172.657C225.984 171.603 225.528 170.741 225.366 170.741C225.205 170.741 224.757 171.559 224.37 172.559ZM107.481 177.028C106.218 180.293 106.312 180.182 104.183 180.946C103.101 181.335 102.175 181.767 102.126 181.906C102.077 182.045 102.913 182.46 103.985 182.829C105.057 183.198 106.03 183.623 106.148 183.773C106.266 183.924 106.686 184.844 107.081 185.818C107.476 186.791 107.896 187.588 108.013 187.588C108.13 187.588 108.544 186.791 108.933 185.818C109.322 184.844 109.742 183.924 109.866 183.773C109.99 183.623 110.968 183.198 112.04 182.829C113.112 182.46 113.95 182.049 113.902 181.914C113.855 181.78 112.906 181.326 111.793 180.906L109.77 180.141L109.002 178.249C108.579 177.208 108.122 176.357 107.987 176.357C107.852 176.357 107.624 176.659 107.481 177.028ZM314.553 177.008C313.279 180.299 313.378 180.181 311.247 180.946C310.165 181.335 309.239 181.768 309.189 181.909C309.139 182.05 309.949 182.465 310.988 182.833C312.027 183.2 313.002 183.623 313.155 183.774C313.308 183.924 313.755 184.844 314.148 185.818C314.542 186.791 314.961 187.588 315.081 187.588C315.2 187.588 315.538 186.956 315.832 186.184C316.762 183.737 316.863 183.632 319.039 182.859C320.144 182.467 321.01 182.039 320.964 181.908C320.918 181.777 319.965 181.326 318.847 180.906L316.815 180.141L316.112 178.321C315.725 177.32 315.277 176.46 315.115 176.409C314.953 176.358 314.701 176.628 314.553 177.008ZM68.1466 188.137C68.0071 188.439 67.2032 190.384 66.3605 192.458L64.8279 196.229L61.2491 197.528C54.4501 199.994 54.4292 200.021 58.2526 201.4C59.6407 201.901 61.6909 202.651 62.8091 203.067L64.8419 203.824L65.6456 205.83C66.0874 206.934 66.6115 207.867 66.81 207.906C67.0088 207.944 67.4279 208.579 67.7416 209.318C68.5571 211.238 69.1367 211.24 69.9212 209.326C70.253 208.515 70.6811 207.853 70.8721 207.853C71.0701 207.853 71.5684 206.981 72.0286 205.831L72.8377 203.809L77.1601 202.247C81.7238 200.597 82.1297 200.407 82.1297 199.918C82.1297 199.746 80.0979 198.881 77.4899 197.944L72.8501 196.277L71.0838 191.933C69.7157 188.569 69.2143 187.589 68.8592 187.589C68.6068 187.588 68.2864 187.835 68.1466 188.137ZM148.516 187.893C148.452 188.061 148.121 188.912 147.781 189.785L147.163 191.372L145.128 192.152C144.009 192.581 143.057 193.036 143.012 193.164C142.967 193.291 143.78 193.696 144.819 194.064C145.858 194.431 146.833 194.855 146.986 195.005C147.139 195.156 147.586 196.075 147.979 197.049C148.373 198.022 148.791 198.819 148.908 198.819C149.025 198.819 149.438 198.022 149.825 197.049C150.211 196.075 150.658 195.156 150.818 195.005C150.977 194.855 151.952 194.433 152.984 194.068C154.016 193.703 154.861 193.32 154.861 193.216C154.861 193.113 153.913 192.655 152.753 192.2L150.646 191.372L149.884 189.48C149.157 187.673 148.771 187.225 148.516 187.893ZM275.211 188.137C275.071 188.439 274.267 190.384 273.424 192.458L271.892 196.229L268.313 197.528C261.534 199.987 261.529 199.993 265.317 201.386C266.704 201.897 268.755 202.654 269.873 203.069L271.906 203.824L272.71 205.83C273.151 206.934 273.675 207.867 273.874 207.906C274.073 207.944 274.492 208.579 274.806 209.318C275.621 211.238 276.201 211.24 276.985 209.326C277.317 208.515 277.745 207.853 277.936 207.853C278.134 207.853 278.632 206.981 279.093 205.831L279.902 203.809L284.224 202.249C286.601 201.392 288.717 200.543 288.925 200.365C289.545 199.833 288.92 199.494 284.23 197.818L279.914 196.275L278.148 191.933C276.78 188.569 276.278 187.589 275.923 187.589C275.671 187.588 275.35 187.835 275.211 188.137ZM355.437 188.259C355.292 188.629 354.985 189.425 354.753 190.029C354.196 191.488 354.174 191.506 352.03 192.247C351.008 192.6 350.132 193.004 350.083 193.143C350.034 193.282 350.844 193.696 351.883 194.064C352.922 194.431 353.897 194.855 354.05 195.005C354.203 195.156 354.65 196.075 355.043 197.049C355.437 198.022 355.855 198.819 355.972 198.819C356.089 198.819 356.502 198.022 356.889 197.049C357.275 196.075 357.722 195.156 357.882 195.005C358.041 194.855 359.016 194.433 360.048 194.068C361.08 193.703 361.925 193.32 361.925 193.216C361.925 193.113 360.982 192.655 359.829 192.2L357.733 191.372L356.963 189.48C356.539 188.439 356.081 187.588 355.946 187.588C355.811 187.588 355.582 187.89 355.437 188.259ZM-17.0022 206.998C-17.0022 213.926 -16.9059 218.595 -16.7633 218.595C-16.6318 218.595 -15.8582 216.975 -15.0441 214.994C-14.2301 213.014 -13.4215 211.063 -13.2473 210.66C-12.9701 210.019 -12.5643 209.799 -9.98402 208.887C-7.66024 208.066 -6.69532 207.847 -5.41955 207.85C-3.71904 207.853 -3.51171 207.742 -4.25482 207.226C-4.68629 206.926 -4.68629 206.903 -4.25482 206.745C-3.31164 206.4 -3.8645 206.144 -5.54974 206.144C-6.96114 206.144 -7.81606 205.957 -9.99385 205.174C-11.4769 204.641 -12.782 204.118 -12.8935 204.013C-13.0579 203.858 -15.041 199.195 -16.2707 196.072C-16.4162 195.703 -16.6403 195.401 -16.7687 195.401C-16.9041 195.401 -17.0022 200.268 -17.0022 206.998ZM188.634 197.781C188.093 199.09 187.284 201.04 186.836 202.113L186.022 204.063L183.318 205.084C181.056 205.938 180.308 206.108 178.738 206.124C176.888 206.143 176.427 206.378 177.314 206.847C177.746 207.076 177.746 207.095 177.314 207.252C176.392 207.587 176.908 207.853 178.479 207.85C179.755 207.847 180.72 208.066 183.044 208.887C185.624 209.799 186.03 210.019 186.307 210.66C186.481 211.063 187.29 213.014 188.104 214.994C189.905 219.378 190.143 219.505 191.309 216.703C191.742 215.662 192.548 213.725 193.099 212.397L194.103 209.983L197.026 208.918C199.384 208.059 200.27 207.853 201.606 207.853C203.211 207.853 203.738 207.589 202.809 207.252C202.378 207.095 202.378 207.076 202.809 206.847C203.696 206.378 203.235 206.143 201.386 206.124C199.816 206.108 199.067 205.938 196.805 205.084L194.101 204.063L193.287 202.113C192.84 201.04 192.03 199.09 191.489 197.781C190.777 196.056 190.383 195.401 190.062 195.401C189.74 195.401 189.347 196.056 188.634 197.781ZM395.698 197.781C395.157 199.09 394.348 201.04 393.9 202.113L393.086 204.063L390.382 205.084C388.12 205.938 387.372 206.108 385.802 206.124C383.846 206.144 383.623 206.246 384.378 206.77C384.81 207.07 384.81 207.093 384.378 207.251C383.457 207.588 383.971 207.853 385.543 207.85C386.819 207.847 387.784 208.066 390.108 208.887C392.688 209.799 393.094 210.019 393.371 210.66C393.545 211.063 394.354 213.014 395.168 214.994C395.982 216.975 396.755 218.595 396.887 218.595C397.029 218.595 397.126 213.926 397.126 206.998C397.126 200.619 397.026 195.401 396.904 195.401C396.782 195.401 396.239 196.472 395.698 197.781ZM23.2285 206.732C23.1097 207.178 22.7021 207.451 21.5412 207.86C20.6992 208.158 20.0105 208.482 20.0105 208.582C20.0105 208.682 20.6902 208.997 21.5208 209.283C22.9865 209.788 23.0455 209.843 23.5169 211.15C23.784 211.891 24.1233 212.46 24.2711 212.415C24.4191 212.369 24.7569 211.767 25.0217 211.078C25.4767 209.895 25.5888 209.793 27.0276 209.267C27.866 208.961 28.5519 208.64 28.5519 208.555C28.5519 208.47 27.8631 208.158 27.0212 207.86C25.8603 207.451 25.4526 207.178 25.3338 206.732C25.206 206.252 25.0121 206.144 24.2812 206.144C23.5502 206.144 23.3564 206.252 23.2285 206.732ZM230.292 206.732C230.174 207.178 229.766 207.451 228.605 207.86C227.763 208.158 227.074 208.482 227.074 208.582C227.074 208.682 227.754 208.997 228.585 209.283C230.05 209.788 230.109 209.843 230.581 211.15C230.848 211.891 231.187 212.46 231.335 212.415C231.483 212.369 231.821 211.767 232.086 211.078C232.541 209.895 232.653 209.793 234.092 209.267C234.93 208.961 235.616 208.64 235.616 208.555C235.616 208.47 234.927 208.158 234.085 207.86C232.924 207.451 232.517 207.178 232.398 206.732C232.27 206.252 232.076 206.144 231.345 206.144C230.614 206.144 230.42 206.252 230.292 206.732ZM122.065 214.729C121.633 215.905 121.5 216.033 120.113 216.601C119.294 216.936 118.625 217.294 118.625 217.395C118.625 217.496 119.198 217.759 119.899 217.979C121.364 218.438 121.481 218.552 122.096 220.121C122.346 220.759 122.638 221.281 122.745 221.281C122.852 221.281 123.23 220.65 123.583 219.877C124.181 218.573 124.322 218.441 125.567 218.022C126.304 217.773 126.907 217.484 126.907 217.379C126.907 217.273 126.273 216.944 125.498 216.648C124.207 216.153 124.041 215.998 123.51 214.788C123.19 214.062 122.839 213.468 122.729 213.468C122.619 213.468 122.32 214.036 122.065 214.729ZM329.134 214.714C328.696 215.907 328.567 216.031 327.177 216.601C326.358 216.936 325.689 217.287 325.689 217.381C325.689 217.475 326.242 217.748 326.918 217.986C328.549 218.561 328.606 218.614 329.152 220.046C329.411 220.725 329.709 221.281 329.814 221.281C329.918 221.281 330.293 220.65 330.647 219.877C331.245 218.573 331.385 218.441 332.631 218.022C333.368 217.773 333.971 217.484 333.971 217.379C333.971 217.273 333.334 216.943 332.556 216.645C331.254 216.147 331.101 216.003 330.648 214.857C330.376 214.172 330.031 213.572 329.879 213.524C329.728 213.477 329.393 214.012 329.134 214.714ZM152.044 228.423C151.786 228.993 151.439 229.85 151.273 230.327C150.998 231.122 150.801 231.253 148.905 231.903C147.768 232.293 146.838 232.727 146.838 232.867C146.838 233.008 147.74 233.456 148.842 233.864L150.845 234.605L151.729 236.621C152.243 237.793 152.709 238.546 152.843 238.42C152.969 238.301 153.404 237.4 153.809 236.418L154.545 234.633L156.541 233.878C157.639 233.463 158.537 233.013 158.538 232.879C158.539 232.744 157.637 232.302 156.534 231.897L154.528 231.158L153.767 229.272C153.348 228.234 152.895 227.385 152.759 227.385C152.624 227.385 152.302 227.852 152.044 228.423ZM358.739 229.292L358.02 231.199L355.961 231.906C354.828 232.294 353.902 232.727 353.902 232.867C353.902 233.008 354.804 233.456 355.906 233.864L357.909 234.605L358.793 236.621C359.307 237.793 359.773 238.546 359.907 238.42C360.033 238.301 360.468 237.4 360.873 236.418L361.609 234.633L363.605 233.878C364.703 233.463 365.601 233.013 365.602 232.879C365.603 232.744 364.701 232.302 363.598 231.897L361.592 231.158L360.831 229.272C360.412 228.234 359.932 227.385 359.763 227.385C359.595 227.385 359.134 228.243 358.739 229.292ZM29.705 231.891C29.4782 232.402 29.0884 233.312 28.8384 233.912C28.4113 234.938 28.2687 235.046 26.4864 235.7C25.4428 236.084 24.4802 236.5 24.3469 236.625C24.1968 236.767 24.9308 237.148 26.2817 237.629L28.4582 238.404L29.2049 240.341C29.6157 241.407 30.079 242.279 30.2343 242.279C30.3896 242.279 30.8529 241.407 31.2636 240.341L32.0104 238.404L34.1869 237.629C35.5377 237.148 36.2717 236.767 36.1216 236.625C35.9883 236.5 35.0229 236.083 33.9762 235.698L32.0727 235L31.3216 233.207C30.9083 232.221 30.4683 231.312 30.3435 231.187C30.2092 231.053 29.9488 231.34 29.705 231.891ZM236.75 231.934C236.534 232.422 236.152 233.312 235.902 233.912C235.475 234.938 235.333 235.046 233.55 235.7C232.507 236.084 231.544 236.5 231.411 236.625C231.261 236.767 231.995 237.148 233.346 237.629L235.522 238.404L236.269 240.341C236.68 241.407 237.143 242.279 237.298 242.279C237.454 242.279 237.917 241.406 238.328 240.34L239.075 238.402L241.013 237.714C242.078 237.336 242.995 236.9 243.05 236.745C243.106 236.585 242.288 236.151 241.145 235.735L239.14 235.005L238.421 233.331C238.025 232.411 237.698 231.521 237.694 231.353C237.679 230.736 237.131 231.073 236.75 231.934ZM72.0071 238.65L71.1294 240.636L69.1162 241.376C68.0089 241.782 67.1413 242.224 67.1882 242.356C67.235 242.489 68.1629 242.917 69.2503 243.308L71.2272 244.017L71.9797 245.882C72.3935 246.908 72.8545 247.785 73.0041 247.833C73.1537 247.879 73.6196 247.061 74.0394 246.014L74.8027 244.11L76.8436 243.33C77.9661 242.901 78.9199 242.45 78.9631 242.328C79.0064 242.206 78.0754 241.762 76.8943 241.341L74.7468 240.576L74.0097 238.62C73.6043 237.544 73.1853 236.663 73.0786 236.663C72.972 236.663 72.4898 237.557 72.0071 238.65ZM279.071 238.65L278.193 240.636L276.18 241.376C275.073 241.782 274.205 242.224 274.252 242.356C274.299 242.489 275.227 242.917 276.314 243.308L278.291 244.017L279.044 245.882C279.457 246.908 279.918 247.785 280.068 247.833C280.218 247.879 280.685 247.061 281.106 246.014L281.872 244.11L283.98 243.282C285.139 242.826 286.088 242.375 286.088 242.279C286.088 242.183 285.122 241.752 283.942 241.322L281.797 240.539L281.067 238.601C280.665 237.535 280.249 236.663 280.143 236.663C280.036 236.663 279.554 237.557 279.071 238.65ZM112.039 238.838C111.903 239.045 110.171 243.205 109.005 246.124C108.724 246.829 108.356 247.41 108.188 247.414C108.02 247.419 106.02 248.109 103.742 248.948C98.1155 251.02 98.1153 251.005 103.794 253.022C106.186 253.872 108.271 254.686 108.43 254.832C108.588 254.977 109.384 256.745 110.199 258.759C111.735 262.557 112.239 263.52 112.691 263.52C112.983 263.52 112.997 263.491 115.112 258.352L116.585 254.772L119.74 253.615C121.476 252.979 123.527 252.224 124.3 251.938C125.725 251.411 126.016 251.148 125.674 250.694C125.484 250.443 117.389 247.406 116.908 247.406C116.769 247.406 115.849 245.428 114.864 243.011C113.505 239.675 112.967 238.616 112.629 238.616C112.385 238.616 112.119 238.716 112.039 238.838ZM319.103 238.838C318.967 239.045 317.235 243.205 316.069 246.124C315.788 246.829 315.42 247.41 315.252 247.414C315.084 247.419 313.084 248.109 310.806 248.948C305.179 251.02 305.179 251.005 310.858 253.022C313.25 253.872 315.336 254.686 315.495 254.832C315.655 254.977 316.528 256.935 317.437 259.182C318.949 262.922 319.432 263.726 319.976 263.409C320.082 263.347 320.904 261.471 321.802 259.24C322.699 257.009 323.583 255.042 323.766 254.87C323.949 254.698 326.033 253.864 328.398 253.017C330.763 252.17 332.752 251.395 332.818 251.295C333.153 250.783 332.31 250.329 328.427 248.932C326.094 248.093 324.077 247.406 323.943 247.406C323.809 247.406 322.899 245.428 321.921 243.011C320.564 239.657 320.037 238.616 319.696 238.616C319.45 238.616 319.183 238.716 319.103 238.838ZM-13.6203 241.627C-14.4447 243.638 -14.4682 243.665 -15.728 244.093C-16.8945 244.488 -17.0022 244.591 -17.0022 245.308C-17.0022 246.011 -16.8653 246.153 -15.6723 246.688C-14.3924 247.261 -14.3135 247.356 -13.5724 249.201C-12.673 251.44 -12.5299 251.409 -11.4715 248.749L-10.7913 247.04L-8.71653 246.317C-7.57534 245.92 -6.68083 245.485 -6.72845 245.35C-6.77608 245.215 -7.72573 244.77 -8.83844 244.363L-10.862 243.621L-11.6361 241.607C-12.0622 240.499 -12.4952 239.593 -12.5987 239.593C-12.7022 239.593 -13.1619 240.508 -13.6203 241.627ZM193.448 241.615L192.611 243.658L190.561 244.372C189.434 244.765 188.511 245.201 188.51 245.342C188.509 245.483 189.431 245.92 190.558 246.315L192.607 247.032L193.431 249.078C194.39 251.459 194.522 251.438 195.592 248.749L196.273 247.04L198.347 246.317C199.489 245.92 200.383 245.485 200.335 245.35C200.288 245.215 199.344 244.77 198.239 244.363L196.229 243.621L195.487 241.813C195.078 240.819 194.641 239.908 194.515 239.789C194.381 239.663 193.934 240.429 193.448 241.615ZM396.026 244.888C395.324 245.061 395.49 245.56 396.349 245.866C397.101 246.134 397.126 246.12 397.126 245.431C397.126 244.728 396.977 244.654 396.026 244.888ZM36.4664 262.923C35.6575 264.921 35.407 265.131 32.8358 265.955C32.1167 266.186 31.5284 266.474 31.5284 266.595C31.5284 266.717 32.4592 267.162 33.597 267.584L35.6656 268.351L36.4529 270.269C36.8859 271.324 37.3487 272.188 37.4815 272.188C37.6143 272.188 38.0763 271.328 38.508 270.277L39.2933 268.366L41.21 267.663C42.2642 267.276 43.233 266.86 43.3629 266.737C43.5053 266.603 42.7329 266.195 41.4188 265.709L39.2387 264.904L38.5013 262.991C38.0957 261.939 37.6399 261.078 37.4885 261.078C37.3368 261.078 36.8769 261.908 36.4664 262.923ZM243.52 262.999L242.754 264.917L240.591 265.716C239.329 266.182 238.524 266.605 238.658 266.731C238.784 266.851 239.751 267.261 240.806 267.643L242.724 268.338L243.514 270.263C243.949 271.322 244.413 272.188 244.545 272.188C244.678 272.188 245.14 271.328 245.572 270.277L246.357 268.366L248.274 267.663C249.328 267.276 250.299 266.857 250.433 266.732C250.583 266.59 249.849 266.209 248.498 265.728L246.322 264.953L245.575 263.016C245.164 261.95 244.706 261.079 244.557 261.079C244.409 261.08 243.942 261.944 243.52 262.999ZM85.8597 272.004C85.2449 273.574 85.1274 273.688 83.6627 274.147C82.9618 274.367 82.3885 274.629 82.3885 274.731C82.3885 274.832 83.0581 275.19 83.8768 275.525C85.2633 276.093 85.3966 276.221 85.8286 277.396C86.0835 278.09 86.3991 278.658 86.5298 278.658C86.6605 278.658 86.976 278.09 87.2309 277.396C87.6629 276.221 87.7962 276.093 89.1828 275.525C90.0015 275.19 90.6711 274.832 90.6711 274.731C90.6711 274.629 90.0977 274.367 89.3968 274.147C87.9321 273.688 87.8146 273.574 87.1999 272.004C86.9501 271.367 86.6486 270.845 86.5298 270.845C86.411 270.845 86.1094 271.367 85.8597 272.004ZM292.924 272.004C292.309 273.574 292.191 273.688 290.727 274.147C290.026 274.367 289.452 274.634 289.452 274.742C289.452 274.85 290.083 275.18 290.855 275.475C292.143 275.969 292.303 276.119 292.826 277.335C293.139 278.062 293.484 278.658 293.594 278.658C293.703 278.658 294.048 278.062 294.361 277.335C294.884 276.119 295.044 275.969 296.333 275.475C297.104 275.18 297.735 274.85 297.735 274.742C297.735 274.634 297.162 274.367 296.461 274.147C294.996 273.688 294.879 273.574 294.264 272.004C294.014 271.367 293.713 270.845 293.594 270.845C293.475 270.845 293.173 271.367 292.924 272.004ZM-10.7266 277.254C-11.2908 278.63 -12.087 280.592 -12.4962 281.614L-13.2404 283.471L-15.1298 284.152L-17.0195 284.832L-16.946 287.272L-16.8728 289.712L-15.0902 290.35C-13.9677 290.753 -13.231 291.169 -13.1006 291.477C-12.9864 291.745 -12.1991 293.667 -11.3509 295.749C-9.37939 300.585 -9.18578 300.669 -7.8101 297.287C-7.27458 295.971 -6.46988 294.021 -6.02185 292.954L-5.20705 291.015L-0.686586 289.377C3.69023 287.792 4.41728 287.358 3.65063 286.787C3.4666 286.65 1.38949 285.854 -0.965088 285.018L-5.24588 283.497L-5.85671 281.993C-9.41071 273.241 -9.17595 273.47 -10.7266 277.254ZM152.362 275.178C152.296 275.414 151.928 276.307 151.545 277.164L150.849 278.723L148.836 279.463C147.729 279.87 146.861 280.311 146.907 280.443C146.954 280.575 147.876 281.008 148.956 281.406L150.921 282.13L151.688 283.983C152.11 285.003 152.572 285.873 152.715 285.918C152.857 285.963 153.311 285.155 153.723 284.123C154.43 282.352 154.538 282.22 155.637 281.78C156.278 281.524 157.239 281.139 157.773 280.926C158.307 280.712 158.743 280.462 158.743 280.372C158.743 280.281 157.782 279.862 156.607 279.441L154.471 278.675L153.731 276.713C153.005 274.785 152.601 274.332 152.362 275.178ZM196.337 277.254C195.773 278.63 194.977 280.592 194.568 281.613L193.824 283.471L189.213 285.134C185.277 286.553 184.613 286.866 184.679 287.269C184.739 287.637 185.748 288.101 189.258 289.372C192.484 290.539 193.819 291.138 193.966 291.483C194.079 291.748 194.865 293.667 195.713 295.749C197.685 300.585 197.878 300.669 199.254 297.287C199.789 295.971 200.594 294.021 201.042 292.954L201.857 291.015L206.377 289.377C210.754 287.792 211.481 287.358 210.715 286.787C210.531 286.65 208.452 285.853 206.096 285.016L201.812 283.495L200.046 279.123C198.675 275.727 198.178 274.751 197.822 274.751C197.479 274.751 197.103 275.385 196.337 277.254ZM359.426 275.178C359.36 275.414 358.992 276.307 358.609 277.164L357.913 278.723L355.9 279.463C354.793 279.87 353.925 280.311 353.971 280.443C354.018 280.575 354.94 281.008 356.02 281.406L357.985 282.13L358.752 283.983C359.174 285.003 359.634 285.872 359.773 285.916C359.913 285.96 360.379 285.141 360.809 284.097L361.591 282.198L363.624 281.433C364.742 281.013 365.694 280.565 365.738 280.44C365.783 280.314 364.855 279.865 363.677 279.443L361.534 278.675L360.795 276.713C360.069 274.785 359.665 274.332 359.426 275.178ZM395.573 285.404C394.79 285.704 393.59 286.139 392.907 286.37C390.94 287.036 391.268 287.548 394.395 288.689C395.811 289.206 397.009 289.591 397.058 289.546C397.106 289.501 397.112 288.427 397.071 287.161L396.996 284.858L395.573 285.404ZM117.878 295.81C117.619 296.38 117.251 297.258 117.059 297.761C116.743 298.59 116.532 298.738 114.769 299.371C113.701 299.755 112.786 300.185 112.736 300.327C112.686 300.469 113.553 300.916 114.664 301.32L116.683 302.055L117.494 303.958C117.941 305.005 118.421 305.898 118.562 305.943C118.704 305.987 119.149 305.147 119.553 304.075L120.287 302.127L122.432 301.344C123.612 300.914 124.578 300.476 124.578 300.371C124.578 300.266 123.613 299.836 122.433 299.417L120.289 298.653L119.558 296.712C119.156 295.645 118.719 294.772 118.587 294.772C118.455 294.772 118.136 295.239 117.878 295.81ZM324.942 295.81C324.683 296.38 324.314 297.26 324.122 297.764C323.804 298.596 323.592 298.746 321.827 299.389C320.757 299.779 319.844 300.204 319.798 300.333C319.752 300.463 320.636 300.919 321.762 301.347L323.809 302.126L324.582 303.991C325.006 305.018 325.473 305.895 325.618 305.94C325.764 305.986 326.213 305.147 326.617 304.075L327.351 302.127L329.496 301.344C330.676 300.914 331.642 300.476 331.642 300.371C331.642 300.266 330.677 299.836 329.497 299.417L327.353 298.653L326.622 296.712C326.22 295.645 325.783 294.772 325.651 294.772C325.519 294.772 325.2 295.239 324.942 295.81ZM72.0319 298.247L71.2021 300.307L69.16 301.008C68.0366 301.393 67.1175 301.828 67.1175 301.975C67.1175 302.121 68.0374 302.556 69.1618 302.942L71.2057 303.643L71.9442 305.476C72.35 306.484 72.817 307.35 72.9816 307.401C73.1527 307.454 73.6105 306.688 74.0508 305.612L74.8208 303.731L76.819 302.975C77.918 302.559 78.8345 302.118 78.8557 301.996C78.877 301.873 77.9822 301.428 76.8677 301.007L74.841 300.241L74.0684 298.422C73.6434 297.422 73.1982 296.509 73.0786 296.395C72.9593 296.28 72.4883 297.113 72.0319 298.247ZM279.218 297.998C278.827 298.976 278.396 299.912 278.259 300.076C278.123 300.241 277.15 300.678 276.096 301.047C275.043 301.416 274.181 301.836 274.181 301.98C274.181 302.123 275.101 302.556 276.226 302.942L278.27 303.643L279.008 305.476C279.414 306.484 279.881 307.35 280.046 307.401C280.217 307.454 280.674 306.688 281.115 305.612L281.885 303.731L283.883 302.975C284.982 302.559 285.898 302.118 285.92 301.996C285.941 301.873 285.047 301.429 283.934 301.008L281.91 300.243L281.283 298.789C280.937 297.99 280.654 297.212 280.654 297.06C280.653 296.909 280.489 296.658 280.29 296.502C279.993 296.269 279.801 296.536 279.218 297.998ZM36.5456 298.161C35.9573 299.592 35.8915 299.654 34.4452 300.164C33.6239 300.454 32.952 300.761 32.952 300.846C32.952 300.931 33.6218 301.245 34.4405 301.545C35.7903 302.038 35.9834 302.204 36.5112 303.314C36.8313 303.987 37.1766 304.565 37.2783 304.599C37.38 304.633 37.7002 304.082 37.9899 303.375C38.4834 302.17 38.609 302.055 40.0048 301.545C40.8235 301.245 41.4934 300.931 41.4934 300.846C41.4934 300.761 40.8152 300.452 39.9865 300.159C38.5507 299.653 38.457 299.568 38.009 298.36C37.7502 297.662 37.4517 297 37.3456 296.888C37.2395 296.775 36.8795 297.348 36.5456 298.161ZM243.63 298.088C243.351 298.704 243.122 299.295 243.122 299.401C243.122 299.508 242.423 299.842 241.569 300.143C240.715 300.445 240.016 300.766 240.016 300.858C240.016 300.95 240.684 301.251 241.502 301.526C242.91 302 243.015 302.094 243.508 303.306C243.794 304.01 244.14 304.603 244.278 304.623C244.415 304.644 244.764 304.082 245.054 303.375C245.547 302.17 245.673 302.055 247.069 301.545C247.887 301.245 248.557 300.931 248.557 300.846C248.557 300.761 247.875 300.45 247.04 300.156C245.576 299.639 245.507 299.575 245.046 298.295C244.783 297.566 244.471 296.969 244.353 296.969C244.235 296.969 243.91 297.473 243.63 298.088ZM169.593 314.988C168.929 316.787 168.47 317.298 167.091 317.775C166.343 318.034 165.732 318.326 165.732 318.425C165.732 318.524 166.392 318.827 167.199 319.099C168.62 319.577 168.683 319.637 169.192 320.981C169.481 321.745 169.824 322.336 169.955 322.295C170.085 322.254 170.442 321.635 170.747 320.919C171.249 319.74 171.424 319.571 172.593 319.141C173.304 318.879 173.978 318.58 174.091 318.475C174.205 318.371 173.609 318.048 172.767 317.758C171.265 317.242 171.225 317.204 170.67 315.768C170.359 314.963 170.046 314.304 169.975 314.304C169.904 314.304 169.732 314.612 169.593 314.988ZM376.657 314.988C375.992 316.787 375.534 317.298 374.155 317.775C373.407 318.034 372.796 318.326 372.796 318.425C372.796 318.524 373.456 318.827 374.263 319.099C375.684 319.577 375.747 319.637 376.256 320.981C376.545 321.745 376.888 322.336 377.019 322.295C377.149 322.254 377.506 321.635 377.811 320.919C378.313 319.74 378.488 319.571 379.657 319.141C380.367 318.879 381.042 318.58 381.155 318.475C381.269 318.371 380.673 318.048 379.831 317.758C378.329 317.242 378.289 317.204 377.734 315.768C377.423 314.963 377.11 314.304 377.039 314.304C376.968 314.304 376.796 314.612 376.657 314.988ZM10.5712 322.485C10.1814 323.492 9.72976 324.399 9.56748 324.499C9.40519 324.599 8.46176 324.968 7.47122 325.318C6.48041 325.668 5.63275 326.06 5.58693 326.189C5.54138 326.318 6.47187 326.771 7.65498 327.195L9.80586 327.965L10.5622 329.928C10.9784 331.007 11.4357 331.853 11.5786 331.808C11.7215 331.763 12.1923 330.869 12.6245 329.82L13.4103 327.913L15.3332 327.218C16.3908 326.835 17.3621 326.422 17.4918 326.3C17.6339 326.166 16.8502 325.765 15.5232 325.292L13.3182 324.507L12.5922 322.58C12.193 321.52 11.7341 320.652 11.5729 320.652C11.4116 320.652 10.9608 321.477 10.5712 322.485ZM217.635 322.485C217.245 323.492 216.794 324.399 216.631 324.499C216.469 324.599 215.526 324.968 214.535 325.318C213.544 325.668 212.697 326.06 212.651 326.189C212.605 326.318 213.532 326.77 214.709 327.194L216.851 327.963L217.616 329.927C218.037 331.007 218.499 331.854 218.642 331.809C218.785 331.764 219.256 330.869 219.688 329.82L220.474 327.913L222.397 327.218C223.455 326.835 224.426 326.422 224.556 326.3C224.698 326.166 223.914 325.765 222.587 325.292L220.382 324.507L219.656 322.58C219.257 321.52 218.798 320.652 218.637 320.652C218.476 320.652 218.025 321.477 217.635 322.485ZM141.672 328.526C139.14 334.827 139.022 335.07 138.33 335.396C137.955 335.573 136.018 336.3 134.025 337.01C132.032 337.721 130.251 338.414 130.067 338.55C129.28 339.131 130.004 339.564 134.401 341.144L138.919 342.767L139.477 344.101C139.784 344.834 140.585 346.78 141.258 348.425C142.768 352.118 143.092 352.256 144.134 349.646C144.522 348.672 145.322 346.729 145.911 345.328L146.982 342.78L151.455 341.142C153.915 340.241 156.004 339.432 156.097 339.344C156.552 338.915 155.399 338.305 151.355 336.833L146.943 335.227L145.168 330.87C143.038 325.639 142.877 325.531 141.672 328.526ZM349.376 326.939C349.278 327.175 348.678 328.685 348.044 330.297C347.41 331.908 346.721 333.573 346.514 333.996C346.306 334.419 346.136 334.862 346.136 334.98C346.136 335.212 345.98 335.276 341.348 336.93C335.951 338.857 335.754 339.121 338.889 340.215C339.957 340.587 341.989 341.313 343.405 341.827L345.981 342.762L346.535 344.098C346.84 344.833 347.641 346.78 348.315 348.425C349.779 352 350.177 352.23 351.056 350.012C353.28 344.401 354.028 342.807 354.531 342.608C354.825 342.492 356.907 341.725 359.157 340.902C364.623 338.904 364.681 339.101 357.899 336.625L354.002 335.203L352.613 331.773C351.85 329.887 351.009 327.931 350.746 327.428C350.233 326.447 349.668 326.246 349.376 326.939ZM48.3511 330.113C47.7408 331.653 47.6859 331.706 46.1562 332.225C45.4297 332.471 44.8745 332.784 44.9224 332.92C44.9702 333.056 45.5976 333.373 46.3162 333.626C47.5329 334.054 47.6714 334.191 48.3291 335.61L49.0354 337.133L49.6828 335.628C50.2944 334.207 50.4082 334.094 51.7355 333.586C52.5084 333.29 53.1407 332.959 53.1407 332.851C53.1407 332.743 52.7041 332.523 52.1701 332.364C50.5793 331.888 50.1054 331.478 49.6499 330.184C49.4115 329.507 49.1255 328.954 49.0137 328.954C48.9021 328.954 48.604 329.476 48.3511 330.113ZM255.267 330.358C254.656 331.661 254.511 331.794 253.254 332.217C252.509 332.468 251.938 332.784 251.986 332.92C252.034 333.056 252.662 333.373 253.38 333.626C254.597 334.054 254.735 334.191 255.393 335.61L256.099 337.133L256.752 335.616C257.368 334.184 257.479 334.072 258.729 333.632C259.457 333.376 260.093 333.053 260.142 332.914C260.191 332.776 259.789 332.53 259.247 332.368C257.643 331.887 257.17 331.48 256.714 330.184C256.475 329.507 256.201 328.954 256.104 328.954C256.006 328.954 255.63 329.586 255.267 330.358ZM92.9405 334.508L92.0387 336.645L89.7905 337.467C88.5541 337.919 87.583 338.404 87.6324 338.544C87.6818 338.684 88.6931 339.152 89.8793 339.583C92.217 340.433 92.1723 340.385 93.2682 343.237C93.5262 343.908 93.8842 344.458 94.0635 344.458C94.2432 344.458 94.6081 343.862 94.8747 343.135C95.969 340.148 95.9809 340.138 100.054 338.876C100.896 338.614 100.513 338.316 98.2465 337.471L95.9864 336.627L95.1144 334.499C94.6348 333.329 94.1523 332.372 94.0423 332.372C93.9321 332.372 93.4364 333.333 92.9405 334.508ZM300.004 334.507L299.126 336.641L296.866 337.465C295.623 337.918 294.647 338.404 294.696 338.544C294.746 338.684 295.764 339.154 296.959 339.589L299.131 340.379L299.965 342.418C300.423 343.54 300.942 344.458 301.119 344.458C301.295 344.458 301.797 343.553 302.233 342.447L303.026 340.437L305.223 339.607C306.432 339.151 307.457 338.674 307.502 338.547C307.547 338.42 306.564 337.94 305.318 337.48L303.052 336.645L302.179 334.508C301.699 333.333 301.211 332.372 301.094 332.372C300.978 332.372 300.487 333.332 300.004 334.507ZM68.4189 355.548C67.864 356.948 67.8058 357.003 66.3216 357.527C65.482 357.823 64.853 358.154 64.9239 358.262C64.9949 358.371 65.6489 358.646 66.3773 358.874C67.621 359.264 67.7413 359.376 68.3578 360.724C68.7187 361.513 69.0927 362.159 69.1884 362.159C69.2845 362.159 69.5806 361.555 69.8466 360.816C70.312 359.525 70.3876 359.453 71.83 358.925C72.6547 358.624 73.3295 358.312 73.3295 358.233C73.3295 358.153 72.6599 357.815 71.8412 357.481C70.4583 356.917 70.319 356.785 69.8736 355.609C69.6101 354.913 69.3034 354.291 69.1921 354.226C69.0808 354.161 68.7329 354.756 68.4189 355.548ZM185.169 356.117L184.343 358.132L182.285 358.852C181.153 359.248 180.227 359.687 180.227 359.828C180.228 359.969 181.149 360.404 182.274 360.796L184.32 361.509L185.037 363.238C186.136 365.89 186.218 365.902 187.159 363.57L187.976 361.548L189.969 360.814C191.064 360.41 192.001 359.966 192.05 359.827C192.1 359.688 191.212 359.25 190.078 358.853L188.016 358.132L187.19 356.117C186.736 355.009 186.281 354.102 186.179 354.102C186.078 354.102 185.623 355.009 185.169 356.117ZM275.483 355.548C274.928 356.948 274.87 357.003 273.386 357.527C272.546 357.823 271.917 358.154 271.988 358.262C272.059 358.371 272.713 358.646 273.441 358.874C274.685 359.264 274.805 359.376 275.422 360.724C275.783 361.513 276.157 362.159 276.252 362.159C276.348 362.159 276.645 361.555 276.911 360.816C277.376 359.525 277.452 359.453 278.894 358.925C279.719 358.624 280.393 358.312 280.393 358.233C280.393 358.153 279.709 357.809 278.872 357.469C277.444 356.888 277.324 356.774 276.911 355.601C276.669 354.914 276.377 354.297 276.263 354.23C276.148 354.163 275.797 354.756 275.483 355.548ZM392.233 356.117L391.407 358.132L389.349 358.852C388.216 359.248 387.291 359.687 387.291 359.828C387.292 359.969 388.222 360.408 389.359 360.804L391.426 361.523L392.121 363.245C393.196 365.907 393.288 365.92 394.26 363.546C395.054 361.61 395.162 361.471 396.114 361.175C397.082 360.874 397.126 360.814 397.126 359.81C397.126 358.801 397.086 358.749 396.114 358.475C395.155 358.203 395.06 358.084 394.266 356.145C393.805 355.021 393.345 354.102 393.243 354.102C393.142 354.102 392.687 355.009 392.233 356.117ZM-17.0022 359.839C-17.0022 360.819 -17.0221 360.81 -15.8292 360.34C-14.7069 359.898 -14.6981 359.651 -15.7911 359.278C-16.9836 358.871 -17.0022 358.88 -17.0022 359.839ZM17.4545 365.882C16.5279 368.191 16.3535 368.364 14.2088 369.102C13.129 369.473 12.2456 369.865 12.2456 369.972C12.2456 370.079 13.129 370.47 14.2088 370.842C16.3535 371.58 16.5279 371.753 17.4545 374.062C17.7913 374.901 18.1832 375.552 18.3255 375.507C18.4676 375.462 18.9154 374.595 19.3204 373.579L20.0571 371.733L22.0397 370.993C23.1302 370.586 24.0224 370.121 24.0224 369.96C24.0224 369.798 23.1488 369.365 22.0811 368.996L20.1399 368.326L19.3541 366.42C18.9219 365.371 18.4552 364.478 18.3175 364.434C18.1798 364.391 17.7913 365.042 17.4545 365.882ZM224.518 365.882C223.592 368.191 223.417 368.364 221.273 369.102C220.193 369.473 219.31 369.859 219.31 369.958C219.31 370.057 220.154 370.447 221.186 370.823C222.218 371.2 223.194 371.603 223.354 371.721C223.514 371.838 223.978 372.757 224.385 373.762C224.792 374.768 225.239 375.554 225.378 375.51C225.518 375.467 225.986 374.574 226.418 373.527L227.204 371.624L229.128 370.968C230.186 370.608 231.094 370.195 231.145 370.051C231.245 369.766 231.093 369.691 228.757 368.867L227.204 368.32L226.418 366.417C225.986 365.37 225.519 364.478 225.381 364.434C225.244 364.391 224.855 365.042 224.518 365.882ZM107.084 371.742C106.691 372.715 106.244 373.635 106.091 373.786C105.938 373.936 104.968 374.358 103.936 374.723C102.904 375.087 102.06 375.478 102.06 375.591C102.06 375.703 102.962 376.122 104.066 376.522L106.071 377.249L106.952 379.234C107.437 380.325 107.947 381.183 108.085 381.139C108.223 381.096 108.65 380.241 109.032 379.239L109.728 377.419L111.772 376.654C112.896 376.233 113.853 375.785 113.898 375.657C113.943 375.53 113.132 375.118 112.096 374.742C111.06 374.366 110.082 373.935 109.923 373.785C109.763 373.635 109.316 372.715 108.929 371.742C108.543 370.768 108.13 369.972 108.013 369.972C107.896 369.972 107.478 370.768 107.084 371.742ZM314.148 371.742C313.755 372.715 313.308 373.635 313.155 373.786C313.002 373.936 312.027 374.36 310.988 374.727C309.949 375.094 309.137 375.503 309.184 375.636C309.231 375.769 310.157 376.2 311.242 376.596L313.214 377.314L314.045 379.259C314.502 380.328 314.969 381.203 315.084 381.203C315.198 381.203 315.633 380.352 316.051 379.311L316.81 377.419L318.845 376.654C319.964 376.233 320.917 375.785 320.962 375.657C321.007 375.53 320.196 375.118 319.16 374.742C318.124 374.366 317.146 373.935 316.987 373.785C316.827 373.635 316.38 372.715 315.993 371.742C315.607 370.768 315.194 369.972 315.077 369.972C314.96 369.972 314.542 370.768 314.148 371.742ZM68.2315 381.612C68.1334 381.857 67.3324 383.815 66.451 385.964L64.8491 389.87L60.2769 391.561C54.3241 393.761 54.3225 393.678 60.3613 395.865L64.8642 397.495L65.6598 399.481L66.4554 401.468H68.8424H71.2293L72.0438 399.446L72.8581 397.423L77.0206 395.966C79.3097 395.165 81.4249 394.317 81.721 394.082C82.228 393.68 82.2329 393.636 81.8079 393.324C81.56 393.142 79.4389 392.304 77.0944 391.462L72.8317 389.93L72.1404 388.191C70.076 383 69.2842 381.326 68.8574 381.248C68.6058 381.203 68.332 381.362 68.2315 381.612ZM147.991 382.973C147.604 383.947 147.157 384.866 146.998 385.016C146.838 385.167 145.86 385.597 144.824 385.973C143.788 386.349 142.979 386.765 143.026 386.897C143.072 387.03 144.002 387.458 145.091 387.849L147.071 388.56L147.836 390.428C148.256 391.456 148.713 392.332 148.85 392.375C148.988 392.418 149.475 391.576 149.934 390.503L150.767 388.552L152.736 387.845C153.819 387.456 154.743 387.03 154.79 386.897C154.837 386.765 154.027 386.349 152.991 385.973C151.956 385.597 150.978 385.167 150.818 385.016C150.659 384.866 150.204 383.947 149.807 382.973C149.41 382 148.997 381.203 148.889 381.203C148.782 381.203 148.378 382 147.991 382.973ZM275.295 381.612C275.197 381.857 274.396 383.815 273.515 385.964L271.913 389.87L267.341 391.561C263.446 393 262.78 393.321 262.845 393.724C262.898 394.05 263.406 394.376 264.475 394.771C265.329 395.086 267.349 395.827 268.964 396.416L271.9 397.488L272.496 398.873C272.824 399.634 273.165 400.53 273.254 400.863C273.411 401.453 273.474 401.468 275.854 401.468H278.293L279.108 399.446L279.922 397.423L284.085 395.966C286.374 395.165 288.489 394.317 288.785 394.082C289.301 393.672 289.304 393.641 288.853 393.311C288.594 393.122 286.473 392.283 284.139 391.447L279.895 389.928L279.204 388.19C277.14 383.001 276.348 381.326 275.921 381.248C275.67 381.203 275.396 381.362 275.295 381.612ZM355.055 382.973C354.668 383.947 354.221 384.866 354.062 385.016C353.902 385.167 352.924 385.597 351.888 385.973C350.852 386.349 350.043 386.765 350.09 386.897C350.136 387.03 351.066 387.458 352.155 387.849L354.135 388.56L354.9 390.428C355.32 391.456 355.777 392.332 355.914 392.375C356.051 392.418 356.539 391.576 356.998 390.503L357.831 388.552L359.8 387.845C360.883 387.456 361.807 387.03 361.853 386.899C361.9 386.767 361.054 386.341 359.975 385.953C358.894 385.564 357.918 385.133 357.806 384.994C357.692 384.856 357.273 383.947 356.874 382.973C356.475 382 356.061 381.203 355.953 381.203C355.846 381.203 355.442 382 355.055 382.973ZM-17.0022 395.182V401.452L-10.4018 401.521C-6.77168 401.559 -3.8016 401.521 -3.8016 401.437C-3.80212 401.107 -4.6032 400.759 -8.74577 399.288L-13.0426 397.762L-14.6585 393.694C-15.5473 391.457 -16.4382 389.465 -16.6383 389.269C-16.9512 388.961 -17.0022 389.788 -17.0022 395.182ZM189.604 389.321C189.46 389.489 188.613 391.459 187.721 393.698L186.099 397.77L182.839 398.922C178.699 400.385 176.861 401.144 176.861 401.393C176.861 401.502 182.802 401.59 190.062 401.59C197.322 401.59 203.262 401.521 203.262 401.437C203.262 401.107 202.462 400.759 198.334 399.293L194.053 397.773L192.413 393.7C190.81 389.715 190.459 389.016 190.062 389.016C189.954 389.016 189.748 389.153 189.604 389.321ZM396.668 389.321C396.524 389.489 395.679 391.453 394.789 393.686L393.172 397.746L389.908 398.911C385.706 400.409 383.925 401.148 383.925 401.393C383.925 401.502 386.895 401.559 390.525 401.521L397.126 401.452V395.234C397.126 391.814 397.082 389.016 397.028 389.016C396.974 389.016 396.812 389.153 396.668 389.321ZM23.8386 400.491C23.4703 401.326 23.4762 401.348 24.0891 401.425C24.9715 401.537 25.0786 401.335 24.6177 400.428L24.2154 399.637L23.8386 400.491ZM230.903 400.491C230.534 401.326 230.54 401.348 231.153 401.425C232.035 401.537 232.143 401.335 231.682 400.428L231.279 399.637L230.903 400.491Z" fill="white"/>
</g>
<defs>
<radialGradient id="paint0_radial_2087_568" cx="0" cy="0" r="1" gradientUnits="userSpaceOnUse" gradientTransform="translate(194.592 187.5) rotate(90) scale(187.5 194.592)">
<stop stop-color="#D9D9D9"/>
<stop offset="0.445702" stop-color="#D9D9D9"/>
<stop offset="1" stop-color="#D9D9D9" stop-opacity="0"/>
</radialGradient>
</defs>
</svg>
