<svg width="142" height="42" viewBox="0 0 142 42" fill="none" xmlns="http://www.w3.org/2000/svg">
<g opacity="0.6">
<path d="M15.3655 23.4709C14.9516 23.5167 13.6822 23.4938 11.5574 23.4022L11.9023 23.0723L12.2335 22.77C12.5094 22.5135 12.7302 22.2799 12.8958 22.0692L12.8682 21.9593L14.3583 20.5026C15.2229 19.4949 16.0646 18.4872 16.8833 17.4795C16.8189 17.4886 16.8143 17.452 16.8695 17.3695C16.989 17.2138 17.1684 16.9985 17.4076 16.7237L17.5593 16.545L17.7249 16.3526L18.0698 15.9679L17.6421 18.4964C17.5869 18.762 17.5133 19.0872 17.4214 19.472L17.311 19.9942L17.1868 20.5164C16.9936 21.3959 16.8557 22.0646 16.7729 22.5227C16.8833 22.486 16.9568 22.8296 16.9936 23.5533C16.2946 23.5258 15.7519 23.4983 15.3655 23.4709ZM22.6506 23.9106C22.6046 23.8923 22.5724 23.8739 22.5541 23.8556C22.5265 23.8373 22.5219 23.8144 22.5403 23.7869C22.2459 23.8694 21.809 23.8831 21.2295 23.8281L20.3188 23.7457C19.9233 23.6999 19.5784 23.6724 19.284 23.6632L18.7183 23.6358L18.7873 23.1411L18.8701 22.6601C19.4864 19.1514 20.2269 16.2015 21.0915 13.8104C21.1375 13.6547 21.1927 13.4806 21.2571 13.2882C21.3399 13.0409 21.4319 12.789 21.533 12.5324C21.7906 11.8362 22.0895 11.1537 22.4299 10.4849L19.9877 8.98709C18.8011 10.6911 16.9016 13.0775 14.2893 16.1465C13.3419 17.2642 12.3806 18.3635 11.4056 19.4445C10.587 20.3606 9.90628 21.1027 9.36358 21.6707L9.12902 21.918L8.85307 22.2204L8.54952 22.5364L7.95623 23.1685L6.82483 23.0586H6.67305C5.53245 22.9578 4.58502 23.022 3.83075 23.251C3.46282 23.3884 3.09948 23.5625 2.74075 23.7732C2.89712 23.7732 3.07189 23.7869 3.26505 23.8144C2.80513 23.8969 2.50619 24.0022 2.36821 24.1305C2.05547 24.3503 1.95428 24.4923 2.06467 24.5565C2.09226 24.5748 2.16125 24.5931 2.27163 24.6114L2.4096 24.6389L2.54758 24.6664C2.60277 24.6664 2.63956 24.6847 2.65796 24.7214L2.68556 24.7626L2.69935 24.8038C2.72695 24.8863 2.80054 24.9275 2.92011 24.9275C2.71775 24.9916 2.55218 25.0557 2.4234 25.1199C2.4234 25.1382 2.451 25.1382 2.50619 25.1199L2.60277 25.0786L2.69935 25.0237C2.87412 24.9412 2.94771 24.9412 2.92011 25.0237C2.83733 25.0328 2.74075 25.0695 2.63037 25.1336L2.49239 25.2298L2.36821 25.3122C2.38661 25.3214 2.4372 25.3168 2.51999 25.2985L2.61657 25.2573L2.74075 25.2161C2.93391 25.1519 3.03509 25.1473 3.04429 25.2023C3.0259 25.2115 2.9799 25.2206 2.90632 25.2298L2.82353 25.2435L2.71315 25.2573C2.54758 25.2939 2.47859 25.3489 2.50619 25.4222C2.50619 25.4313 2.53838 25.4222 2.60277 25.3947L2.68556 25.3672L2.76834 25.326C2.64876 25.3993 2.54758 25.4726 2.46479 25.5459C2.40041 25.6191 2.36361 25.6833 2.35441 25.7382C2.33602 25.839 2.4326 25.8711 2.64416 25.8344L2.54758 25.8894L2.4372 25.9444C2.35441 25.9902 2.29922 26.0406 2.27163 26.0955C2.29003 26.0772 2.32222 26.0497 2.36821 26.0131L2.4234 25.9856L2.46479 25.9444C2.40041 25.9993 2.34982 26.0543 2.31302 26.1093L2.38201 26.123L2.451 26.0818L2.51999 26.0268L2.46479 26.0818L2.4234 26.123L2.60277 26.1642L2.75454 26.1505L2.89252 26.1642C2.9937 26.1734 3.06269 26.1734 3.09948 26.1642C3.46742 26.036 3.97333 25.9581 4.61722 25.9306C4.79198 25.9306 5.04494 25.9306 5.37608 25.9306C5.15532 26.1688 4.99895 26.3383 4.90696 26.4391L4.1343 27.346C3.83995 27.685 3.5778 27.9781 3.34784 28.2255L4.21709 27.7033C4.08831 27.8132 3.93654 27.9415 3.76177 28.0881L3.5548 28.2805L3.34784 28.4454C3.05349 28.7019 2.86952 28.8759 2.79594 28.9675C2.28083 29.4439 2.08306 29.6913 2.20264 29.7096C2.26703 29.7188 2.39121 29.6913 2.57518 29.6271L2.82353 29.5447L3.07189 29.4622C3.17307 29.4164 3.24206 29.3981 3.27885 29.4073C3.28805 29.4164 3.30185 29.4302 3.32024 29.4485L3.33404 29.4897C3.38003 29.563 3.52261 29.5264 3.76177 29.3798C3.34784 29.7096 2.9799 29.989 2.65796 30.218C2.66716 30.2455 2.74075 30.2089 2.87872 30.1081C2.93391 30.0715 3.0029 30.0211 3.08569 29.957L3.30645 29.7783C3.69278 29.4668 3.84915 29.3752 3.77556 29.5035L3.45822 29.7508L3.12708 30.0119C2.84193 30.2409 2.61197 30.4104 2.4372 30.5204C2.49239 30.5295 2.61197 30.4791 2.79594 30.3692C2.91552 30.2868 3.09028 30.1631 3.32024 29.9982C3.78936 29.6592 4.02392 29.5126 4.02392 29.5584C3.97793 29.6042 3.87675 29.6821 3.72037 29.792L3.51341 29.9295L3.27885 30.0806C2.87412 30.3371 2.67176 30.4975 2.67176 30.5616C2.67176 30.5799 2.75914 30.5341 2.93391 30.4242C3.09948 30.3142 3.24206 30.2089 3.36164 30.1081C3.09488 30.3371 2.79594 30.5753 2.46479 30.8227L2.27163 30.9464L2.18884 31.0151L2.11986 31.07C2.00028 31.1525 1.91749 31.212 1.8715 31.2487C1.72433 31.3494 1.72433 31.3907 1.8715 31.3723C2.03707 31.354 2.29922 31.2578 2.65796 31.0838C2.32682 31.2853 2.00028 31.4411 1.67833 31.551C1.42998 31.6426 1.19542 31.693 0.974658 31.7021C0.698706 31.7205 0.482544 31.6747 0.326172 31.5647C0.445751 31.6747 0.638917 31.7296 0.90567 31.7296C1.10803 31.7205 1.3242 31.6838 1.55416 31.6197C1.09424 31.7754 0.712504 31.7938 0.408957 31.6747C0.482544 31.7296 0.560731 31.7709 0.643516 31.7983C0.974658 31.8716 1.34719 31.8258 1.76112 31.6609C1.60475 31.7159 1.45297 31.7617 1.3058 31.7983C1.12183 31.835 0.951662 31.8487 0.795289 31.8396C1.04365 31.9129 1.33799 31.9129 1.67833 31.8396C1.92669 31.7754 2.16585 31.7021 2.39581 31.6197C2.55218 31.5556 2.74535 31.4731 2.9753 31.3723C3.32484 31.2074 3.5916 31.0609 3.77556 30.9326C4.86097 30.1448 6.16714 29.0225 7.69407 27.5659C8.05281 27.2269 8.53572 26.7551 9.14282 26.1505C9.45556 26.1597 9.74991 26.1597 10.0259 26.1505C10.0075 26.1047 10.0213 26.0818 10.0673 26.0818C10.15 26.0726 10.2788 26.0772 10.4536 26.0955L10.6743 26.123L10.9089 26.1505L11.0469 26.1368C11.0653 26.1276 11.0791 26.1138 11.0883 26.0955L11.1021 26.068C11.2308 26.0772 11.3642 26.0909 11.5022 26.1093L16.4417 25.7657C16.6993 25.7199 16.9384 25.6787 17.1592 25.642C17.0488 26.4574 17.0212 26.8834 17.0764 26.92C17.4076 27.1765 17.5823 28.1797 17.6007 29.9295C17.6007 30.076 17.5915 30.2959 17.5731 30.5891L17.5455 30.9326C17.5455 31.0609 17.5409 31.1662 17.5317 31.2487C17.5317 31.3403 17.5317 31.4319 17.5317 31.5235C17.5409 31.5968 17.5455 31.6518 17.5455 31.6884C17.5547 31.7342 17.5731 31.7571 17.6007 31.7571C17.6559 31.8396 17.6835 31.8396 17.6835 31.7571C17.6743 31.7296 17.6743 31.7113 17.6835 31.7021L17.6973 31.6884L17.7111 31.6609C17.7203 31.6609 17.7295 31.6426 17.7387 31.606L17.7663 31.551L17.7801 31.5098C17.7985 31.4548 17.8215 31.4594 17.8491 31.5235C17.8399 31.2945 17.8445 30.9693 17.8629 30.5478C17.8813 30.2272 17.9089 29.8562 17.9457 29.4348C18.0009 28.8668 18.0836 28.111 18.194 27.1674L18.2906 26.4116L18.401 25.6558L18.8425 25.7108C19.0081 25.7291 19.1415 25.7428 19.2426 25.752C19.2242 25.6695 19.2748 25.5917 19.3944 25.5184C19.4404 25.4909 19.5048 25.4634 19.5876 25.4359L19.7945 25.3535C20.1533 25.2161 20.3005 25.0832 20.2361 24.955L20.4982 24.9962C20.6086 25.0054 20.7006 25.0099 20.7742 25.0099C20.9765 25.0191 21.0823 25.0054 21.0915 24.9687C21.1835 24.6481 21.5422 24.3778 22.1677 24.1579L22.3609 24.1167L22.5541 24.103C22.6828 24.0847 22.7564 24.0572 22.7748 24.0205C22.8024 23.993 22.7978 23.9701 22.761 23.9518L22.7058 23.9381L22.6506 23.9106Z" fill="#F8F8F8"/>
<path d="M31.1637 17.7406C30.9798 17.5573 30.9384 17.4795 31.0396 17.507C30.4693 17.1955 29.8852 17.0031 29.2873 16.9298C28.6066 16.8473 27.9489 16.9252 27.3142 17.1634C26.7531 17.365 26.2242 17.6902 25.7275 18.1391C25.378 18.4597 25.033 18.8582 24.6927 19.3346L24.6513 19.3896C24.6605 19.1514 24.6605 18.9453 24.6513 18.7712C24.6237 18.4506 24.5685 18.0062 24.4857 17.4382C24.4121 17.6306 24.3385 17.8093 24.265 17.9742C24.3293 17.397 24.3431 17.0443 24.3063 16.9161C24.2604 16.4946 24.1868 16.316 24.0856 16.3801C24.0488 16.3985 23.9982 16.458 23.9338 16.5588L23.8372 16.6962L23.7406 16.8199C23.713 16.8748 23.6809 16.9069 23.6441 16.9161L23.6027 16.9298L23.5475 16.9161C23.4647 16.9069 23.4003 16.9756 23.3543 17.1222L23.4095 16.3939C23.3911 16.3847 23.3773 16.4214 23.3681 16.5038L23.3543 16.6412V16.7924C23.3451 17.0581 23.3129 17.1542 23.2577 17.081C23.2761 16.971 23.2853 16.8244 23.2853 16.6412V16.4076V16.1877C23.2577 16.2152 23.2347 16.2794 23.2163 16.3801L23.1887 16.545L23.1749 16.7237C23.1382 17.0168 23.0968 17.1542 23.0508 17.1359C23.0508 17.1084 23.06 17.0443 23.0784 16.9435L23.106 16.8061L23.1335 16.6687C23.1887 16.4305 23.1841 16.2977 23.1198 16.2702C23.1014 16.2702 23.0876 16.3206 23.0784 16.4214L23.0646 16.5588L23.0508 16.6962C23.0508 16.229 23.0186 15.9221 22.9542 15.7755C22.8714 15.6289 22.784 15.7434 22.692 16.119C22.7012 16.0641 22.7104 15.9908 22.7196 15.8992L22.7334 15.6656C22.761 15.4732 22.761 15.3541 22.7334 15.3083L22.7058 15.7068V15.4869C22.7058 15.4136 22.7058 15.3632 22.7058 15.3358L22.6368 15.377C22.6184 15.4594 22.6092 15.5602 22.6092 15.6793C22.6092 15.5694 22.6092 15.4778 22.6092 15.4045C22.5633 15.4503 22.5127 15.5281 22.4575 15.6381L22.3747 15.8992L22.2781 16.1465C22.2045 16.3389 22.1677 16.4763 22.1677 16.5588C22.0941 17.2367 21.9838 18.0978 21.8366 19.1422L21.671 20.4477L21.4916 21.7669L21.533 21.7531H21.5882C21.6158 21.744 21.6296 21.7715 21.6296 21.8356C21.6296 21.9913 21.5882 22.202 21.5054 22.4677L21.4227 22.77C21.3951 22.8891 21.3813 22.9991 21.3813 23.0998L21.4778 23.1411L21.1881 24.2267L20.9535 26.2879C20.9995 26.2696 21.0225 26.2879 21.0225 26.3429C21.0133 26.462 20.9903 26.6269 20.9535 26.8376L20.8845 27.1124L20.8294 27.4147L20.8156 27.5934L20.8294 27.6071V27.6209C20.7466 27.9598 20.6822 28.285 20.6362 28.5965L23.3819 29.05C23.5107 28.3171 23.6441 27.4697 23.782 26.5078L23.8096 26.3978C24.0856 25.4817 24.4121 24.5381 24.7893 23.5671C24.964 22.9991 25.1204 22.5593 25.2584 22.2478C25.3964 21.973 25.5849 21.6615 25.8241 21.3134C26.008 21.0386 26.2196 20.7546 26.4588 20.4614C26.376 20.4339 26.3484 20.3377 26.376 20.1728C26.3944 20.0538 26.445 19.8888 26.5278 19.6781L26.5829 19.5545L26.6381 19.4308C26.6749 19.3392 26.6979 19.2705 26.7071 19.2247C26.7439 19.0781 26.7071 19.0002 26.5967 18.9911C26.6795 18.9178 26.7853 18.8399 26.9141 18.7574C26.9969 18.6933 27.1073 18.62 27.2452 18.5376C27.512 18.3818 27.6454 18.2902 27.6454 18.2627C27.6454 18.162 27.6684 18.0704 27.7143 17.9879C27.7695 17.878 27.8615 17.7726 27.9903 17.6719C28.1651 17.5436 28.372 17.4474 28.6112 17.3833C28.9331 17.2917 29.2827 17.2642 29.6598 17.3008C29.9725 17.3466 30.3037 17.4657 30.6532 17.6581L30.8602 17.768L30.9568 17.823L31.0396 17.8642C31.1591 17.9375 31.2373 17.9788 31.2741 17.9879C31.3937 18.0062 31.3569 17.9238 31.1637 17.7406Z" fill="#F8F8F8"/>
<path d="M49.9698 10.0864C47.5047 8.62064 44.5244 7.59917 41.029 7.02202C40.937 7.02202 40.7071 7.0037 40.3391 6.96705L40.1046 6.95331L39.8286 6.92583C39.617 6.91667 39.4147 6.90292 39.2215 6.8846C38.0901 6.81131 37.0737 6.78383 36.1723 6.80215L35.7859 6.81589L35.8135 6.65099L35.8411 6.48609L36.1723 4.27367L35.7445 5.1394L35.9101 4.60348C35.9653 4.40193 36.0113 4.23703 36.0481 4.10877C36.1401 3.76065 36.1907 3.52246 36.1998 3.3942C36.347 2.71628 36.3562 2.41396 36.2274 2.48725C36.1723 2.51473 36.0895 2.60177 35.9791 2.74834L35.8411 2.95447L35.6893 3.1606C35.6341 3.24305 35.5882 3.28885 35.5514 3.29801H35.51L35.4548 3.27053C35.3812 3.24305 35.2892 3.34382 35.1788 3.57285L35.5514 2.36358C35.533 2.34525 35.5008 2.40938 35.4548 2.55596C35.4364 2.61093 35.4134 2.6888 35.3858 2.78957L35.3168 3.03692C35.188 3.47666 35.1144 3.62781 35.096 3.4904C35.1604 3.3255 35.234 3.08273 35.3168 2.76209L35.4134 2.37732L35.5238 2.00629C35.487 2.03377 35.4318 2.13913 35.3582 2.32235C35.3306 2.39564 35.2984 2.48267 35.2616 2.58344L35.165 2.88576C34.9995 3.38046 34.8983 3.60949 34.8615 3.57285C34.8707 3.50872 34.9075 3.39879 34.9719 3.24305L35.0684 3.02318L35.165 2.78957C35.3214 2.39564 35.372 2.17119 35.3168 2.11623C35.3076 2.0979 35.2708 2.18035 35.2064 2.36358C35.188 2.4277 35.165 2.50557 35.1374 2.59719C35.1098 2.67047 35.0868 2.74376 35.0684 2.81705C35.5744 0.939018 35.5468 0.577152 34.9857 1.73146C35.05 1.55739 35.1558 1.28714 35.303 0.920695L35.3858 0.700828L35.4824 0.48096C35.5468 0.306898 35.6157 0.146578 35.6893 0C35.5974 0.164901 35.51 0.343543 35.4272 0.535927C35.3536 0.700828 35.2938 0.856567 35.2478 1.00315L35.3168 0.783278L35.3996 0.563411C35.464 0.389349 35.5376 0.224448 35.6203 0.0687086L35.4686 0.233609C35.349 0.453477 35.2478 0.677925 35.165 0.906954C35.2478 0.687086 35.326 0.485541 35.3996 0.302318C35.28 0.439735 35.165 0.595475 35.0546 0.769536L34.9305 1.01689L34.8063 1.2505C34.6959 1.45204 34.6177 1.6032 34.5717 1.70397C34.4062 2.01545 34.3004 2.24906 34.2544 2.4048C33.7761 3.87058 33.307 5.40966 32.847 7.02202C32.4423 7.06782 32.0376 7.11821 31.6329 7.17318C31.3385 7.21898 31.0488 7.26479 30.7636 7.3106L30.598 7.33808C29.3839 7.53962 28.3812 7.83278 27.5902 8.21755C27.2958 8.37329 26.9417 8.58399 26.5278 8.84967C26.7301 8.84051 26.9095 8.84051 27.0659 8.84967C26.5691 9.00541 26.2702 9.12908 26.169 9.22069C25.8471 9.42224 25.7321 9.55966 25.8241 9.63295C25.8609 9.65127 25.9345 9.67417 26.0448 9.70165L26.1828 9.72914L26.3346 9.75662C26.3898 9.76578 26.4266 9.7841 26.445 9.81159L26.4726 9.85281L26.4864 9.89404C26.514 9.97649 26.5921 10.0131 26.7209 10.004L26.1276 10.2376C26.1276 10.2559 26.1644 10.2513 26.238 10.2238L26.3484 10.1826L26.4726 10.1276C26.6841 10.036 26.7715 10.0315 26.7347 10.1139C26.6335 10.1322 26.514 10.178 26.376 10.2513L26.1966 10.3338L26.0172 10.4162C26.0448 10.4345 26.1092 10.43 26.2104 10.4025L26.3484 10.375L26.4864 10.32C26.7347 10.2376 26.8635 10.2238 26.8727 10.2788C26.8451 10.288 26.7899 10.3017 26.7071 10.32L26.5829 10.3475L26.4588 10.375C26.2472 10.4116 26.146 10.4666 26.1552 10.5399C26.1552 10.5491 26.2012 10.5399 26.2932 10.5124L26.4036 10.4712L26.514 10.4437C26.146 10.6178 25.9253 10.7643 25.8517 10.8834C25.7689 11.0025 25.8885 11.0346 26.2104 10.9796C26.1736 10.998 26.1138 11.0209 26.031 11.0483L25.8379 11.1171C25.6907 11.1629 25.6125 11.2041 25.6033 11.2407C25.6217 11.2224 25.6585 11.2041 25.7137 11.1858L25.8931 11.1171L25.7275 11.1995C25.6815 11.227 25.6493 11.2453 25.6309 11.2545L25.6999 11.2957C25.7459 11.2957 25.8149 11.2682 25.9069 11.2132L25.7275 11.3094C25.7643 11.3369 25.8379 11.3552 25.9483 11.3644L26.1828 11.3507L26.4174 11.3369C26.5921 11.3278 26.7117 11.314 26.7761 11.2957C27.9811 10.8926 29.4206 10.5353 31.0947 10.2238L31.0809 10.1826L31.0672 10.1414C31.058 10.1139 31.0764 10.091 31.1223 10.0727C31.2419 10.0269 31.3937 10.0086 31.5777 10.0177H31.8122L32.033 10.004L31.688 11.3232C31.7064 11.3323 31.7248 11.3323 31.7432 11.3232L31.7846 11.2957C31.8214 11.2957 31.8306 11.3507 31.8122 11.4606C31.7846 11.6347 31.7386 11.8179 31.6742 12.0103L31.5087 12.5324C31.3431 12.9905 31.2419 13.3524 31.2051 13.618L31.2879 13.7005L30.7084 15.5556C30.4509 16.7466 30.2163 17.9375 30.0047 19.1285C30.0507 19.0918 30.0691 19.1193 30.0599 19.2109C30.0323 19.4033 29.9771 19.6919 29.8944 20.0767L29.784 20.5714L29.6736 21.0935L29.6184 21.4096C29.6276 21.4462 29.6368 21.4737 29.646 21.4921L29.6598 21.5195L29.6736 21.5333L29.4942 22.399C29.2367 24.4603 29.0665 26.265 28.9837 27.8132C28.9377 28.9492 28.9423 29.9066 28.9975 30.6853C29.0435 31.3265 29.1263 31.8487 29.2459 32.2518L29.3149 32.4717C29.3425 32.5633 29.3747 32.6412 29.4114 32.7053C29.4942 32.8885 29.6046 33.058 29.7426 33.2137C29.9541 33.4336 30.2025 33.5573 30.4877 33.5848C30.6164 33.6031 30.7498 33.5985 30.8878 33.571L31.0534 33.5298C32.0192 33.3008 32.7689 32.7328 33.3024 31.8258C33.6059 31.3678 33.9049 30.7631 34.1992 30.0119C34.2912 29.792 34.4062 29.4852 34.5441 29.0912L34.7097 28.6515L34.8615 28.2392C34.7695 28.2484 34.7327 28.1247 34.7511 27.8682C34.7695 27.6483 34.8155 27.3643 34.8891 27.0162L34.9443 26.7964L34.9995 26.5902C35.0363 26.4253 35.0592 26.3108 35.0684 26.2467C35.1052 26.036 35.0592 25.9627 34.9305 26.0268C35.1328 25.7153 35.3306 25.3626 35.5238 24.9687C35.7169 24.5656 35.7997 24.3412 35.7721 24.2954C35.6617 24.1213 35.6341 23.8465 35.6893 23.4709L35.7169 23.2922L35.7583 23.0861C35.7951 22.9304 35.8411 22.7746 35.8963 22.6189C36.0435 22.2158 36.255 21.7852 36.531 21.3272C36.6874 21.0981 36.8713 20.8828 37.0829 20.6813C37.3312 20.4431 37.6026 20.2461 37.8969 20.0904C38.1637 19.9438 38.4672 19.8339 38.8076 19.7606C38.9272 19.7423 39.0513 19.7239 39.1801 19.7056C39.2261 19.7056 39.2721 19.701 39.3181 19.6919H39.3733H39.4285C39.5205 19.6644 39.5297 19.6369 39.4561 19.6094C39.4193 19.6003 39.3457 19.5911 39.2353 19.582C39.1157 19.5728 39.0054 19.5728 38.9042 19.582C38.803 19.582 38.6926 19.5911 38.573 19.6094L38.4213 19.6369C38.3661 19.6461 38.3293 19.6507 38.3109 19.6507C38.1913 19.669 38.2005 19.6415 38.3385 19.5682C37.7958 19.7423 37.2899 20.0629 36.8207 20.5301C36.5172 20.8324 36.2228 21.2035 35.9377 21.6432C35.7261 21.9547 35.5192 22.3074 35.3168 22.7013L35.0409 23.196L34.7925 23.6907L34.3234 24.6252L34.0888 25.0512L33.8267 25.4909C33.4863 26.0589 33.1506 26.8101 32.8194 27.7445L32.6401 28.2805L32.4745 28.7752C32.3365 29.1691 32.2215 29.4806 32.1296 29.7096C31.8996 30.2959 31.6558 30.7127 31.3983 30.9601V30.8639L31.3845 30.7677C31.3569 30.5204 31.3477 30.1402 31.3569 29.6271C31.3753 29.0225 31.4213 28.3629 31.4949 27.6483C31.6421 26.1368 31.9088 24.3137 32.2951 22.1791C32.6263 20.4019 33.0218 18.4872 33.4817 16.4351C33.8497 14.8227 34.1762 13.4852 34.4614 12.4225L34.5303 12.1202C34.7695 11.1949 34.9811 10.3475 35.165 9.57798C35.2478 9.57798 35.3628 9.57798 35.51 9.57798L35.8963 9.59172L36.0619 9.56424C36.0711 9.55508 36.0803 9.54133 36.0895 9.52301L36.1171 9.49553C36.2458 9.49553 36.3884 9.50011 36.5448 9.50927C38.4856 9.31689 40.3069 9.30314 42.0086 9.46805C42.5145 9.45888 42.9285 9.48179 43.2504 9.53675C43.4988 9.58256 43.8069 9.66959 44.1748 9.79785L44.644 9.97649L44.8647 10.0589L45.0717 10.1414C45.0809 10.0589 45.1591 9.99939 45.3062 9.96275C45.3614 9.95359 45.435 9.94901 45.527 9.94901L45.7754 9.93526C46.2169 9.91694 46.4146 9.83449 46.3687 9.68791L46.5066 9.74288L46.6584 9.81159C46.7872 9.86656 46.8884 9.90778 46.962 9.93526C47.1827 10.0177 47.3069 10.0406 47.3345 10.004C47.4633 9.86656 47.638 9.77952 47.8588 9.74288C48.1623 9.69707 48.5533 9.75204 49.0316 9.90778C49.1144 9.93526 49.2156 9.98565 49.3351 10.0589C49.4179 10.1047 49.5237 10.1689 49.6525 10.2513C49.9008 10.4162 50.048 10.4987 50.094 10.4987C50.186 10.5078 50.1676 10.4391 50.0388 10.2925L49.9698 10.2101C49.9422 10.1826 49.9238 10.1597 49.9146 10.1414C49.8962 10.0956 49.9146 10.0773 49.9698 10.0864Z" fill="#F8F8F8"/>
<path d="M39.0145 26.9613C39.0238 26.888 39.0284 26.833 39.0284 26.7964L39.0697 26.8651C39.0789 26.8834 39.0789 26.8971 39.0697 26.9063L39.0559 26.92L39.0421 26.9338L39.0145 26.9613ZM46.9895 29.3935C46.9895 29.3386 47.0125 29.2928 47.0585 29.2561L47.0309 29.2286L47.0171 29.2012L46.9895 29.1737C46.9711 29.137 46.9528 29.105 46.9344 29.0775L46.8654 28.9401C46.7642 28.7477 46.6722 28.5187 46.5894 28.253C46.4514 27.7858 46.3319 27.1994 46.2307 26.494C46.1847 26.1917 46.1479 25.8757 46.1203 25.5459L46.0651 24.8725C46.0467 24.5244 46.0329 24.1808 46.0237 23.8419C46.0053 23.1273 46.0099 22.4082 46.0375 21.6844C46.0559 21.3088 46.0789 20.9149 46.1065 20.5026L46.1755 19.843L46.2997 19.0735C45.7478 18.9269 45.3614 18.817 45.1407 18.7437C44.9475 18.6796 44.8325 18.6246 44.7957 18.5788C44.7865 18.5788 44.7681 18.5788 44.7405 18.5788L44.7129 18.5925L44.644 18.6063C44.5888 18.6154 44.5198 18.6246 44.437 18.6338L44.3542 18.6475L44.2576 18.6613C44.1748 18.6613 44.0967 18.6658 44.0231 18.675C43.8023 18.675 43.531 18.6658 43.209 18.6475C43.1078 18.9132 42.9928 19.1834 42.8641 19.4583L42.6985 19.8018L42.5191 20.1454C42.3076 20.5576 42.0776 20.9882 41.8293 21.4371C41.3417 22.3166 40.8542 23.1227 40.3667 23.8556C40.0816 24.2954 39.8102 24.6893 39.5527 25.0374C39.4331 25.1932 39.3089 25.3489 39.1801 25.5046C39.1617 25.2848 39.1617 25.0466 39.1801 24.7901C39.1893 24.5885 39.2077 24.3824 39.2353 24.1717L39.2629 23.9656C39.2997 23.6907 39.3549 23.3563 39.4285 22.9624L39.5113 22.4265L39.6078 21.8906C39.7734 20.9928 39.8792 20.324 39.9252 19.8843C39.962 19.3896 39.9896 18.8307 40.008 18.2078C39.8976 18.4551 39.7918 18.675 39.6906 18.8674C39.8562 18.1528 39.9298 17.7039 39.9114 17.5207C39.9298 16.9893 39.8792 16.7603 39.7596 16.8336C39.7228 16.8611 39.663 16.9344 39.5803 17.0535L39.4699 17.2046L39.3595 17.3695C39.3227 17.4428 39.2859 17.4795 39.2491 17.4795H39.2077L39.1525 17.4657C39.0697 17.4474 38.9962 17.5253 38.9318 17.6993C38.9962 17.3695 39.0467 17.0672 39.0835 16.7924C39.0651 16.7832 39.0467 16.8336 39.0284 16.9435L39.0008 17.1084L38.9732 17.3008C38.9272 17.6306 38.8812 17.7451 38.8352 17.6444C38.8812 17.507 38.9134 17.3237 38.9318 17.0947L38.9594 16.8199L38.987 16.545C38.9594 16.5725 38.9272 16.6504 38.8904 16.7786L38.849 16.971L38.8076 17.1909C38.7248 17.5573 38.6604 17.7268 38.6144 17.6993C38.6236 17.6627 38.6466 17.5848 38.6834 17.4657L38.7248 17.3008L38.78 17.1222C38.8628 16.829 38.872 16.6687 38.8076 16.6412C38.7984 16.6321 38.78 16.6916 38.7524 16.8199L38.7248 16.9848L38.711 17.0672L38.6972 17.1497C38.7616 16.5908 38.757 16.2152 38.6834 16.0228C38.619 15.8854 38.527 16.0137 38.4075 16.4076L38.4213 16.2839L38.4351 16.1603L38.4764 15.8854C38.4948 15.6747 38.4902 15.5281 38.4627 15.4457C38.4718 15.4823 38.4718 15.5556 38.4627 15.6656L38.4488 15.803V15.9267C38.458 15.7434 38.4534 15.5969 38.4351 15.4869L38.4075 15.5144L38.3661 15.5556L38.3523 15.8992C38.3523 15.7892 38.3477 15.6839 38.3385 15.5831C38.2925 15.6564 38.2465 15.7434 38.2005 15.8442L38.1039 16.1328L37.9935 16.4214C37.8923 16.6595 37.8372 16.8199 37.828 16.9023C37.7452 17.3237 37.6256 17.8459 37.4692 18.4689L37.2623 19.2659L37.0553 20.0904C36.7058 21.5195 36.4712 22.6647 36.3516 23.5258L36.393 23.5121L36.4482 23.4983C36.4758 23.4892 36.4896 23.5258 36.4896 23.6083C36.4896 23.7457 36.4758 23.9014 36.4482 24.0755L36.4068 24.2954L36.3516 24.5152C36.2872 24.8908 36.2688 25.2161 36.2964 25.4909L36.4068 25.5459C36.3976 25.894 36.416 26.21 36.462 26.494C36.4988 26.7047 36.5448 26.8925 36.6 27.0574C36.6736 27.2773 36.7747 27.488 36.9035 27.6896C37.2163 28.1476 37.6302 28.4637 38.1453 28.6377C38.3569 28.711 38.5914 28.7614 38.849 28.7889L39.0008 28.8026H39.0284L39.1939 28.7889C39.2767 28.7797 39.3641 28.766 39.4561 28.7477L39.6078 28.7065C39.7458 28.6698 39.8884 28.6103 40.0356 28.5278C40.2287 28.4179 40.3989 28.2988 40.5461 28.1705L40.7254 28.0056L40.891 27.8545C41.0566 27.6804 41.2314 27.4789 41.4153 27.2498C41.3601 27.2407 41.3509 27.204 41.3877 27.1399C41.4429 27.0758 41.5119 26.9887 41.5947 26.8788L41.7051 26.7414L41.8293 26.5902C42.0408 26.3246 42.2064 26.1093 42.326 25.9444L42.4501 25.7382C42.4593 25.7108 42.4593 25.6879 42.4501 25.6695L42.4363 25.642V25.6283L42.6295 25.3397C42.6479 25.3214 42.6617 25.3077 42.6709 25.2985L42.6847 25.2848C42.7123 25.129 42.7951 24.8634 42.9331 24.4877C42.9699 24.3687 43.025 24.2175 43.0986 24.0343L43.209 23.7732L43.3194 23.4846C43.5218 22.9624 43.6919 22.4952 43.8299 22.0829C43.8299 22.0829 43.8299 22.1196 43.8299 22.1929L43.8437 22.2891L43.8575 22.399C43.9311 22.4448 43.9771 22.6189 43.9955 22.9212C44.0047 23.0403 44.0047 23.2006 43.9955 23.4022L43.9817 23.8007V24.1992C43.9725 24.5106 43.9679 24.7534 43.9679 24.9275C44.0967 24.8175 44.2576 25.0191 44.4508 25.5321C44.6716 26.0909 44.8371 26.2879 44.9475 26.123C44.9751 26.4345 45.0165 26.7276 45.0717 27.0025C45.1269 27.3231 45.1821 27.488 45.2373 27.4972C45.4212 27.5338 45.6006 27.6575 45.7754 27.8682C45.8581 27.9598 45.9731 28.1156 46.1203 28.3354L46.2169 28.4866L46.3135 28.6377C46.3962 28.766 46.4698 28.8759 46.5342 28.9675L46.617 29.105L46.686 29.2424C46.7412 29.3432 46.7872 29.4119 46.824 29.4485C46.87 29.5218 46.9114 29.5539 46.9482 29.5447C47.0217 29.5447 47.0401 29.5218 47.0033 29.476C46.9849 29.4577 46.9757 29.4439 46.9757 29.4348L46.9895 29.3935Z" fill="#F8F8F8"/>
<path d="M58.069 17.7406C57.885 17.5573 57.8436 17.4795 57.9448 17.507C57.3745 17.1955 56.7904 17.0031 56.1925 16.9298C55.5118 16.8473 54.8542 16.9252 54.2195 17.1634C53.6584 17.365 53.1295 17.6902 52.6327 18.1391C52.2832 18.4597 51.9383 18.8582 51.5979 19.3346L51.5565 19.3896C51.5657 19.1514 51.5657 18.9453 51.5565 18.7712C51.5289 18.4506 51.4738 18.0062 51.391 17.4382C51.3174 17.6306 51.2438 17.8093 51.1702 17.9742C51.2346 17.397 51.2484 17.0443 51.2116 16.9161C51.1656 16.4946 51.092 16.316 50.9908 16.3801C50.954 16.3985 50.9035 16.458 50.8391 16.5588L50.7425 16.6962L50.6459 16.8199C50.6183 16.8748 50.5861 16.9069 50.5493 16.9161L50.5079 16.9298L50.4527 16.9161C50.3699 16.9069 50.3056 16.9756 50.2596 17.1222L50.3148 16.3939C50.2964 16.3847 50.2826 16.4214 50.2734 16.5038L50.2596 16.6412V16.7924C50.2504 17.0581 50.2182 17.1542 50.163 17.081C50.1814 16.971 50.1906 16.8244 50.1906 16.6412V16.4076V16.1877C50.163 16.2152 50.14 16.2794 50.1216 16.3801L50.094 16.545L50.0802 16.7237C50.0434 17.0168 50.002 17.1542 49.956 17.1359C49.956 17.1084 49.9652 17.0443 49.9836 16.9435L50.0112 16.8061L50.0388 16.6687C50.094 16.4305 50.0894 16.2977 50.025 16.2702C50.0066 16.2702 49.9928 16.3206 49.9836 16.4214L49.9698 16.5588L49.956 16.6962C49.956 16.229 49.9238 15.9221 49.8594 15.7755C49.7767 15.6289 49.6893 15.7434 49.5973 16.119C49.6065 16.0641 49.6157 15.9908 49.6249 15.8992L49.6387 15.6656C49.6663 15.4732 49.6663 15.3541 49.6387 15.3083L49.6111 15.7068V15.4869C49.6111 15.4136 49.6111 15.3632 49.6111 15.3358L49.5421 15.377C49.5237 15.4594 49.5145 15.5602 49.5145 15.6793C49.5145 15.5694 49.5145 15.4778 49.5145 15.4045C49.4685 15.4503 49.4179 15.5281 49.3627 15.6381L49.2799 15.8992L49.1834 16.1465C49.1098 16.3389 49.073 16.4763 49.073 16.5588C48.9994 17.2367 48.889 18.0978 48.7418 19.1422L48.5763 20.4477L48.3969 21.7669L48.4383 21.7531H48.4935C48.5211 21.744 48.5349 21.7715 48.5349 21.8356C48.5349 21.9913 48.4935 22.202 48.4107 22.4677L48.3279 22.77C48.3003 22.8891 48.2865 22.9991 48.2865 23.0998L48.3831 23.1411L48.0933 24.2267L47.8588 26.2879C47.9048 26.2696 47.9278 26.2879 47.9278 26.3429C47.9186 26.462 47.8956 26.6269 47.8588 26.8376L47.7898 27.1124L47.7346 27.4147L47.7208 27.5934L47.7346 27.6071V27.6209C47.6518 27.9598 47.5874 28.285 47.5415 28.5965L50.2872 29.05C50.4159 28.3171 50.5493 27.4697 50.6873 26.5078L50.7149 26.3978C50.9908 25.4817 51.3174 24.5381 51.6945 23.5671C51.8693 22.9991 52.0257 22.5593 52.1636 22.2478C52.3016 21.973 52.4902 21.6615 52.7293 21.3134C52.9133 21.0386 53.1249 20.7546 53.364 20.4614C53.2812 20.4339 53.2536 20.3377 53.2812 20.1728C53.2996 20.0538 53.3502 19.8888 53.433 19.6781L53.4882 19.5545L53.5434 19.4308C53.5802 19.3392 53.6032 19.2705 53.6124 19.2247C53.6492 19.0781 53.6124 19.0002 53.502 18.9911C53.5848 18.9178 53.6906 18.8399 53.8193 18.7574C53.9021 18.6933 54.0125 18.62 54.1505 18.5376C54.4172 18.3818 54.5506 18.2902 54.5506 18.2627C54.5506 18.162 54.5736 18.0704 54.6196 17.9879C54.6748 17.878 54.7668 17.7726 54.8956 17.6719C55.0703 17.5436 55.2773 17.4474 55.5164 17.3833C55.8384 17.2917 56.1879 17.2642 56.5651 17.3008C56.8778 17.3466 57.2089 17.4657 57.5585 17.6581L57.7654 17.768L57.862 17.823L57.9448 17.8642C58.0644 17.9375 58.1426 17.9788 58.1794 17.9879C58.299 18.0062 58.2622 17.9238 58.069 17.7406Z" fill="#F8F8F8"/>
<path d="M89.2929 8.17632C89.2193 8.14884 89.0675 8.12594 88.8376 8.10761L88.5754 8.09387C88.4834 8.08471 88.419 8.07555 88.3822 8.06639C88.2719 8.05723 88.2811 8.03433 88.4098 7.99768C86.7909 8.17174 85.0202 8.84051 83.0978 10.004C81.764 10.8193 80.3705 11.8774 78.9171 13.1783C76.6267 15.2304 74.2949 17.7543 71.9218 20.75C71.8482 20.8599 71.678 21.1027 71.4112 21.4783C71.3377 21.5791 71.2779 21.6615 71.2319 21.7257L71.0387 21.9868C70.8915 22.2066 70.749 22.4127 70.611 22.6051L70.5834 22.4402V22.5227L70.5972 22.6326L70.5834 22.6464L70.5558 22.4815L70.5006 22.5639V22.7563L70.4868 22.77L70.473 22.6051C70.4178 22.6876 70.3764 22.7746 70.3488 22.8662L70.335 22.9899C69.9487 23.5396 69.5992 24.0618 69.2864 24.5565L69.1898 24.7076C69.3278 23.9289 69.4796 23.1777 69.6451 22.454L69.7279 22.0967C69.8107 21.7211 69.9349 21.176 70.1005 20.4614L70.2936 19.6094L70.4868 18.7574C70.7903 17.4199 71.0065 16.3756 71.1353 15.6243L71.5078 13.0684C71.3422 13.4715 71.1951 13.8104 71.0663 14.0853C71.3699 12.9584 71.5308 12.2805 71.5492 12.0515C71.678 11.2545 71.678 10.9063 71.5492 11.0071C71.5032 11.0529 71.425 11.1629 71.3147 11.3369L71.1767 11.5843L71.0249 11.8316C70.9697 11.9324 70.9237 11.9874 70.8869 11.9965H70.8317L70.7904 11.9828C70.7076 11.9461 70.611 12.0652 70.5006 12.3401L70.8731 10.9384C70.8547 10.9201 70.8225 10.9934 70.7766 11.1583C70.7673 11.2224 70.749 11.314 70.7214 11.4331L70.6386 11.7217C70.519 12.2347 70.45 12.4134 70.4316 12.2576C70.496 12.0469 70.5696 11.7629 70.6524 11.4056L70.749 10.9659L70.8455 10.5399C70.8087 10.5765 70.7536 10.7002 70.68 10.9109C70.6524 10.9934 70.6202 11.0941 70.5834 11.2132L70.4868 11.5568C70.3304 12.1248 70.2338 12.3905 70.1971 12.3538C70.2063 12.2897 70.243 12.166 70.3074 11.9828L70.3902 11.7217L70.4868 11.4469C70.6432 10.9888 70.6938 10.7277 70.6386 10.6636C70.6294 10.6544 70.5926 10.7552 70.5282 10.9659C70.5098 11.0392 70.4868 11.1262 70.4592 11.227L70.4178 11.3644L70.3902 11.4881C70.6018 10.5536 70.703 9.93984 70.6938 9.64669C70.6938 9.34437 70.5604 9.55508 70.2936 10.2788C70.3212 10.1689 70.3626 10.0223 70.4178 9.83907L70.5558 9.35811C70.6754 8.94586 70.7582 8.62522 70.8041 8.39619L70.5144 9.44056L70.7628 8.45116L70.6524 8.61606C70.5604 8.88173 70.4868 9.12908 70.4316 9.35811L70.5972 8.69851C70.5144 8.83593 70.4178 9.00999 70.3074 9.22069C70.243 9.37643 70.1695 9.55966 70.0867 9.77036L69.9763 10.0315L69.8659 10.2788C69.7095 10.6636 69.6084 10.9384 69.5624 11.1033L68.8587 13.6318L68.155 16.2015C67.6307 18.1437 67.203 19.8705 66.8718 21.3821C66.881 21.3821 66.8948 21.3775 66.9132 21.3684L66.9684 21.3409C66.996 21.3409 67.0052 21.4004 66.996 21.5195C66.9592 21.7211 66.9132 21.9409 66.858 22.1791L66.7753 22.4815L66.6787 22.7838C66.5223 23.3151 66.4257 23.7411 66.3889 24.0618L66.4717 24.1579L66.3475 24.6801L66.2096 25.2298C66.1084 25.6512 66.0256 26.0222 65.9612 26.3429C65.7496 27.8545 65.6117 29.2744 65.5473 30.6028C65.5933 30.557 65.6209 30.5845 65.6301 30.6853C65.6209 30.9693 65.5979 31.3632 65.5611 31.8671L68.2792 32.3205C68.3528 32.0915 68.4586 31.8121 68.5965 31.4823L68.7069 31.18C68.7161 31.1433 68.7161 31.1113 68.7069 31.0838L68.6931 31.0563V31.0288C68.8127 30.7723 68.9553 30.4929 69.1208 30.1906C69.6635 28.9721 70.358 27.6529 71.2043 26.2329C71.4526 26.7368 71.701 27.1811 71.9493 27.5659L71.9907 27.5384L72.0183 27.5109C72.0367 27.4834 72.0643 27.488 72.1011 27.5247C72.1563 27.5796 72.2023 27.6483 72.2391 27.7308L72.3495 27.9507C72.4231 28.1522 72.5058 28.2942 72.5978 28.3767L72.6944 28.3492L72.8876 28.7202L73.0807 29.105C73.4303 29.5081 73.7936 29.8882 74.1708 30.2455C74.1891 30.2089 74.2167 30.1997 74.2535 30.218C74.3179 30.273 74.4053 30.3646 74.5157 30.4929L74.6537 30.6578L74.8054 30.8227L74.9158 30.9189C74.9342 30.9189 74.9526 30.9143 74.971 30.9051L74.9986 30.8914C75.109 31.0013 75.1964 31.0975 75.2608 31.18C76.5117 32.1144 77.8639 32.9114 79.3172 33.571L79.8278 33.7359C80.0209 33.8001 80.1819 33.8596 80.3107 33.9146C80.4118 33.9512 80.5268 34.0062 80.6556 34.0795L81.0281 34.2856C81.3409 34.4597 81.58 34.5787 81.7456 34.6429C81.764 34.5696 81.8376 34.5146 81.9664 34.478C82.0124 34.4688 82.0722 34.4551 82.1458 34.4368L82.3527 34.4093C82.7114 34.3543 82.8724 34.2535 82.8356 34.1069C83.0012 34.1619 83.153 34.2031 83.2909 34.2306C83.4657 34.2673 83.5623 34.2627 83.5807 34.2169C83.6911 33.9146 84.013 33.6672 84.5465 33.4748L84.7121 33.4611L84.8777 33.4473C84.9881 33.4473 85.0478 33.429 85.057 33.3924C85.0846 33.3649 85.08 33.342 85.0432 33.3237L85.0018 33.2962L84.9604 33.2687C84.9237 33.2504 84.8961 33.2321 84.8777 33.2137C84.8593 33.1863 84.8547 33.1634 84.8639 33.145C84.3028 33.2641 83.5025 33.113 82.4631 32.6916C81.5249 32.3159 80.5912 31.7983 79.6622 31.1387C79.4506 31.0471 79.0965 30.8135 78.5998 30.4379C78.0111 29.9982 77.4638 29.531 76.9579 29.0363C76.4336 28.5416 75.923 27.9873 75.4263 27.3735C75.0032 26.8513 74.6951 26.4253 74.5019 26.0955L74.4329 25.9993C74.3685 25.8986 74.2719 25.7382 74.1432 25.5184L73.8396 25.0374C73.6096 24.6618 73.4211 24.3778 73.2739 24.1854L73.0531 23.9243L72.8186 23.6495C73.7108 22.312 74.6537 21.0065 75.6471 19.7331C76.2818 18.8353 76.8475 18.1024 77.3442 17.5344C77.7489 17.0855 78.2594 16.5725 78.8757 15.9954C79.3724 15.5373 79.9105 15.0609 80.49 14.5662C80.3981 14.5387 80.4394 14.4013 80.6142 14.154C80.7338 13.9707 80.9362 13.7142 81.2213 13.3844L81.3869 13.1783L81.5525 12.9859C81.6628 12.8577 81.7456 12.7523 81.8008 12.6699C81.9296 12.4683 81.9112 12.3813 81.7456 12.4088C81.902 12.2897 82.0998 12.1477 82.3389 11.9828L82.6425 11.7629L82.9322 11.5568C83.3645 11.2545 83.5853 11.0804 83.5945 11.0346C83.6037 10.8056 83.7647 10.5353 84.0774 10.2238C84.3074 9.98565 84.5695 9.76578 84.8639 9.56424C85.2594 9.2894 85.7239 9.03289 86.2574 8.7947C86.7633 8.59316 87.329 8.44658 87.9545 8.35497C88.0925 8.33664 88.2351 8.3229 88.3822 8.31374C88.4926 8.30458 88.6168 8.29542 88.7548 8.28626C89.0583 8.26793 89.2285 8.25419 89.2653 8.24503C89.3757 8.22671 89.3849 8.20381 89.2929 8.17632Z" fill="#F8F8F8"/>
<path d="M83.1116 23.5533C82.6149 24.1763 82.1273 24.6939 81.649 25.1061C81.557 25.1794 81.4329 25.2756 81.2765 25.3947L81.0971 25.5184L81.0143 25.5733C80.9592 25.61 80.9086 25.6329 80.8626 25.642C80.8074 25.6604 80.7614 25.6512 80.7246 25.6146C80.6786 25.5871 80.6556 25.5504 80.6556 25.5046C80.6556 25.468 80.6556 25.4268 80.6556 25.381L80.6694 25.3397V25.326C80.6694 25.3168 80.674 25.2985 80.6832 25.271L80.7246 25.0374C80.9178 24.3503 81.2535 23.5121 81.7318 22.5227C82.0998 21.744 82.5137 20.9928 82.9736 20.269C83.3783 19.582 83.7555 19.0689 84.105 18.73C83.8842 18.8216 83.6451 18.9498 83.3875 19.1147C83.5899 18.904 83.8244 18.7071 84.0912 18.5238C84.174 18.4689 84.2706 18.4093 84.381 18.3452L84.4361 18.3177L84.4775 18.2902C84.5143 18.2627 84.5419 18.2444 84.5603 18.2353C84.6615 18.1895 84.7581 18.1482 84.8501 18.1116L84.9604 18.0841L85.0294 18.0566C85.1122 18.0291 85.1398 17.9879 85.1122 17.9329C85.0846 17.878 85.0064 17.8276 84.8777 17.7818C84.7397 17.7268 84.5971 17.6948 84.4499 17.6856C84.3212 17.6948 84.243 17.6535 84.2154 17.5619L84.2016 17.5207C84.1832 17.5115 84.1602 17.5024 84.1326 17.4932C84.0682 17.484 83.9578 17.507 83.8015 17.5619C84.2706 17.3329 84.7121 17.2321 85.126 17.2596C85.1536 17.223 85.0754 17.2092 84.8915 17.2184C84.6891 17.2184 84.5051 17.2504 84.3396 17.3146C84.266 17.3329 84.1786 17.3604 84.0774 17.397L83.9808 17.452L83.8842 17.4795C83.7831 17.5253 83.7555 17.5115 83.8015 17.4382C84.0958 17.31 84.3672 17.2184 84.6155 17.1634C84.9558 17.0993 85.2594 17.1176 85.5262 17.2184C85.4894 17.1542 85.356 17.1039 85.126 17.0672C84.8685 17.0306 84.6293 17.0397 84.4085 17.0947C84.3074 17.113 84.197 17.1451 84.0774 17.1909L83.9394 17.2459L83.8153 17.2871C83.6497 17.3512 83.5715 17.3695 83.5807 17.3421C83.6543 17.2871 83.7739 17.2321 83.9394 17.1772C84.1326 17.1039 84.3212 17.0581 84.5051 17.0397C84.5971 17.0306 84.6983 17.0214 84.8087 17.0122H84.9467L85.0708 17.026C85.2548 17.026 85.3606 17.0168 85.3882 16.9985C85.4066 16.9802 85.333 16.9619 85.1674 16.9435C84.9926 16.9252 84.8271 16.9206 84.6707 16.9298C85.057 16.8748 85.4204 16.9023 85.7607 17.0122C85.9079 17.0672 86.0551 17.1313 86.2022 17.2046L86.285 17.2459L86.3678 17.2871C86.423 17.3146 86.4598 17.3375 86.4782 17.3558L86.5472 17.3833C85.5629 19.8659 84.4177 21.9226 83.1116 23.5533ZM86.5886 17.2733L86.5472 17.2321L86.5058 17.1772C86.4598 17.1313 86.4138 17.0855 86.3678 17.0397C86.2298 16.9206 86.0597 16.8061 85.8573 16.6962C86.1148 16.797 86.3678 16.9573 86.6162 17.1772L86.5886 17.2733ZM93.0458 22.5364C92.9722 22.5547 92.8435 22.6189 92.6595 22.7288L92.5629 22.7975L92.4525 22.8525C92.3881 22.8983 92.3375 22.9258 92.3008 22.9349C92.218 22.9807 92.2134 22.9533 92.287 22.8525C91.8546 23.2464 91.3901 23.7274 90.8934 24.2954L90.5899 24.6389L90.3139 24.9687C90.0931 25.2161 89.9046 25.4222 89.7482 25.5871C89.3343 26.0177 88.9755 26.3429 88.672 26.5627L88.6582 26.3154C88.6306 25.6833 88.6536 24.8954 88.7272 23.9518C88.8652 22.3395 89.0997 20.6905 89.4309 19.0048C89.4401 18.8949 89.4539 18.7758 89.4723 18.6475C89.4999 18.4918 89.5274 18.3269 89.555 18.1528C89.6378 17.7222 89.7298 17.3008 89.831 16.8886L87.0577 15.9679C86.9657 16.2519 86.8599 16.5542 86.7403 16.8748C86.4552 16.6 86.1608 16.3939 85.8573 16.2565C85.6181 16.1557 85.3652 16.087 85.0984 16.0503C84.8777 16.0228 84.6753 16.0228 84.4913 16.0503C83.9394 16.1236 83.3875 16.3343 82.8356 16.6824C82.4585 16.9298 82.0814 17.2367 81.7042 17.6031C81.1431 18.1528 80.5958 18.8307 80.0623 19.6369C79.6116 20.324 79.2023 21.0477 78.8343 21.8081C78.4112 22.6967 78.1031 23.4983 77.9099 24.2129C77.9191 24.2221 77.9329 24.2175 77.9513 24.1992L77.9789 24.1854H78.0065C78.0341 24.1854 78.0387 24.245 78.0203 24.3641C77.9927 24.4832 77.9697 24.6068 77.9513 24.7351C77.9237 24.8908 77.8961 25.0466 77.8685 25.2023C77.8225 25.5962 77.8041 25.9352 77.8133 26.2192C77.8501 26.9796 78.0893 27.5751 78.5308 28.0056L78.6688 27.9919C79.0367 28.3858 79.5012 28.6194 80.0623 28.6927C80.6142 28.766 81.1845 28.6836 81.7732 28.4454C81.9848 28.3538 82.2423 28.2118 82.5459 28.0194C82.7206 27.9094 82.8862 27.7949 83.0426 27.6758C83.3093 27.4743 83.5761 27.2453 83.8428 26.9887C84.312 26.5398 84.7627 26.0406 85.195 25.4909C85.1306 25.5001 85.126 25.4634 85.1812 25.381C85.2456 25.2893 85.333 25.1702 85.4434 25.0237L85.5951 24.8313L85.7469 24.6389C86.0137 24.2908 86.2344 23.993 86.4092 23.7457L86.5748 23.4571C86.584 23.4205 86.5886 23.3884 86.5886 23.3609V23.3334L86.5748 23.306L86.7403 23.0586L86.7127 23.7594L86.6989 24.2129L86.6575 24.6939C86.63 25.1061 86.6116 25.4405 86.6024 25.697C86.5748 26.494 86.6116 27.1582 86.7127 27.6896C86.7679 27.6438 86.8875 27.7583 87.0715 28.0331L87.1405 28.1293L87.2095 28.2392C87.2738 28.3125 87.3382 28.3767 87.4026 28.4316C87.5774 28.5874 87.7614 28.624 87.9545 28.5416H87.9407C88.2167 28.4591 88.419 28.3583 88.5478 28.2392C88.6766 28.111 88.672 28.0331 88.534 28.0056C88.8284 27.9232 89.1549 27.74 89.5136 27.456C89.8448 27.1903 90.0012 27.0254 89.9828 26.9613C89.9368 26.7689 89.9874 26.5078 90.1345 26.178C90.3461 25.7108 90.7002 25.1244 91.197 24.419C91.4545 24.0801 91.7811 23.732 92.1766 23.3747L92.4525 23.1273C92.5169 23.0632 92.5997 22.9945 92.7009 22.9212C92.9125 22.7471 93.032 22.6464 93.0596 22.6189C93.124 22.5456 93.1194 22.5181 93.0458 22.5364Z" fill="#F8F8F8"/>
<path d="M107.561 20.3377L107.533 20.2416C107.506 20.1499 107.478 20.0721 107.45 20.0079C107.377 19.8064 107.267 19.6094 107.119 19.4171C106.908 19.1605 106.65 18.9682 106.347 18.8399C106.264 18.8033 106.163 18.7712 106.043 18.7437C105.933 18.7162 105.836 18.7025 105.753 18.7025L105.657 18.6887C105.528 18.6887 105.468 18.6887 105.477 18.6887H105.45L105.408 18.7025H105.326C105.252 18.7116 105.192 18.7208 105.146 18.73C105.045 18.7574 104.953 18.7849 104.87 18.8124C104.742 18.8491 104.608 18.904 104.47 18.9773C104.295 19.0689 104.111 19.188 103.918 19.3346C103.541 19.6278 103.109 20.0583 102.621 20.6263C102.382 20.9012 102.111 21.2401 101.807 21.6432L101.835 21.3409L101.862 21.0248L101.89 20.5164L101.904 20.1728V19.7331C101.895 19.0735 101.812 18.5284 101.656 18.0978C101.472 17.594 101.196 17.2138 100.828 16.9573C100.432 16.6824 99.963 16.5817 99.4203 16.655C98.9512 16.7191 98.4591 16.9161 97.944 17.2459C97.668 17.4291 97.4334 17.6031 97.2403 17.768L97.0609 17.9192L96.9091 18.0566L96.6884 18.2627C96.4492 18.4918 96.2009 18.7437 95.9433 19.0185C95.5294 19.4858 95.1017 20.0034 94.6601 20.5714L94.4394 20.8599C94.4946 20.1362 94.5268 19.4858 94.536 18.9086C94.4348 19.3667 94.3198 19.8064 94.191 20.2278C94.3842 18.9727 94.4578 18.1162 94.4118 17.6581C94.4118 17.1268 94.3888 16.7512 94.3428 16.5313C94.306 16.3481 94.2646 16.3023 94.2186 16.3939C94.1818 16.4488 94.1266 16.6 94.053 16.8473L93.9703 17.1772L93.8599 17.507C93.8323 17.6444 93.8001 17.7268 93.7633 17.7543C93.7449 17.7635 93.7265 17.7635 93.7081 17.7543L93.6667 17.7406C93.5747 17.7222 93.4966 17.8871 93.4322 18.2353C93.4874 17.6215 93.5241 17.0397 93.5425 16.4901C93.5241 16.4809 93.5103 16.5817 93.5011 16.7924L93.4873 16.9435V17.1084L93.4735 17.4795C93.4551 17.7543 93.4368 17.9558 93.4184 18.0841C93.3908 18.2398 93.3678 18.2627 93.3494 18.1528C93.3862 17.8597 93.4092 17.5115 93.4184 17.1084V16.5725L93.4046 16.0503C93.377 16.0961 93.354 16.2519 93.3356 16.5175V16.6962L93.3218 16.9023L93.2942 17.3146C93.239 18.0383 93.1838 18.3727 93.1286 18.3177C93.1286 18.2536 93.147 18.1024 93.1838 17.8642L93.2252 17.5344L93.2666 17.2046C93.3218 16.6275 93.3126 16.3114 93.239 16.2565C93.2298 16.2473 93.2206 16.3664 93.2114 16.6137L93.1976 16.7786V16.9573C93.1884 17.0855 93.1838 17.1863 93.1838 17.2596C93.193 16.7649 93.1792 16.3068 93.1424 15.8854C93.1056 15.5281 93.0596 15.2671 93.0044 15.1022C92.9492 14.9647 92.9079 14.951 92.8803 15.0609C92.8619 15.1617 92.8389 15.4503 92.8113 15.9267C92.8113 15.7251 92.8067 15.551 92.7975 15.4045C92.7883 15.1938 92.7791 15.006 92.7699 14.8411C92.7239 14.4013 92.6549 14.0624 92.5629 13.8242V13.8379C92.6089 13.957 92.6503 14.1356 92.6871 14.3738C92.7147 14.5662 92.7377 14.7586 92.7561 14.951C92.7101 14.5387 92.6411 14.1906 92.5491 13.9066L92.5353 14.099C92.5537 14.1998 92.5721 14.328 92.5905 14.4838L92.6457 14.896C92.6181 14.6395 92.5767 14.4059 92.5215 14.1952L92.4801 14.7998C92.4893 15.1388 92.4617 15.5556 92.3973 16.0503L92.3697 16.3252L92.3284 16.5863C92.31 16.7786 92.2962 16.9252 92.287 17.026C92.1766 18.7391 91.8592 20.7408 91.3349 23.0311C90.7738 25.4222 90.1851 27.3506 89.5688 28.8164L89.7344 28.8851L89.7068 28.9401L92.2732 29.9707L92.3008 29.9157L92.4525 29.9844L92.4939 29.9157C92.4847 29.9066 92.4663 29.9066 92.4387 29.9157L92.4111 29.9295H92.3835C92.3559 29.9295 92.3605 29.8699 92.3973 29.7508C92.5169 29.3844 92.7285 28.9492 93.032 28.4454L93.2114 28.143L93.4046 27.827C93.5517 27.5796 93.6713 27.3552 93.7633 27.1536L93.7219 27.03C94.1174 26.3978 94.6003 25.6879 95.1706 24.9C96.1549 23.3426 97.0885 22.0463 97.9716 21.0111C97.898 21.0203 97.898 20.979 97.9716 20.8874C98.1831 20.6309 98.4361 20.3744 98.7304 20.1179C98.7764 20.0812 98.8316 20.0492 98.896 20.0217L98.9512 19.9667L98.9788 19.9118L99.0064 19.8568C99.0432 19.8476 99.08 19.8614 99.1168 19.898C99.1351 19.9255 99.1443 19.9576 99.1443 19.9942C99.2179 20.2141 99.2409 20.5714 99.2133 21.0661C99.1857 21.7715 99.1122 22.5914 98.9926 23.5258C98.873 24.4236 98.7074 25.4634 98.4959 26.6452L98.1923 27.1399L97.668 28.1293L98.1785 28.3354L98.1095 28.6377L99.7652 29.2836L99.9032 29.0088L100.441 29.2149L100.483 29.0088L100.538 28.7889C100.584 28.5874 100.621 28.4225 100.648 28.2942C100.731 27.8911 100.809 27.5247 100.883 27.1949C101.26 26.5169 101.665 25.8207 102.097 25.1061C102.769 23.906 103.357 22.967 103.863 22.2891C104.157 21.9135 104.433 21.602 104.691 21.3546C104.847 21.1897 104.999 21.0523 105.146 20.9424C105.303 20.8233 105.431 20.75 105.533 20.7225L105.546 20.7637C105.583 20.8828 105.597 21.0569 105.588 21.2859C105.579 21.46 105.56 21.657 105.533 21.8768C105.505 22.0326 105.473 22.2295 105.436 22.4677C105.528 22.4219 105.583 22.5822 105.602 22.9487C105.602 23.0861 105.597 23.2693 105.588 23.4983V23.8007L105.574 24.1305C105.546 24.671 105.537 25.0328 105.546 25.2161C105.574 25.5001 105.643 25.5642 105.753 25.4084C105.625 25.9948 105.514 26.5582 105.422 27.0987C105.321 27.7125 105.293 28.0377 105.339 28.0743C105.487 28.2301 105.597 28.5599 105.671 29.0637C105.689 29.1828 105.707 29.3432 105.726 29.5447L105.753 29.8333L105.795 30.1356L105.836 30.4791L105.878 30.8364C105.924 31.1204 105.979 31.3678 106.043 31.5785C106.108 31.8075 106.167 31.9816 106.223 32.1007C106.287 32.2198 106.351 32.3114 106.416 32.3755C106.471 32.4305 106.563 32.4717 106.692 32.4992C106.802 32.5175 106.894 32.5175 106.968 32.4992C107.096 32.4808 107.11 32.4579 107.009 32.4305C106.889 32.3938 106.807 32.3618 106.761 32.3343C106.687 32.2976 106.641 32.261 106.623 32.2243C106.613 32.1877 106.627 32.1648 106.664 32.1556C106.6 32.119 106.535 32.0457 106.471 31.9358C106.379 31.7434 106.314 31.4411 106.278 31.0288C106.232 30.36 106.291 29.4806 106.457 28.3904C106.558 27.6941 106.733 26.7368 106.981 25.5184L107.133 24.7763L107.285 24.0343C107.395 23.4571 107.483 22.9349 107.547 22.4677C107.593 22.1379 107.625 21.8493 107.644 21.602V21.3546V21.0935C107.644 20.8828 107.621 20.6675 107.575 20.4477L107.561 20.3377Z" fill="#F8F8F8"/>
<path d="M110.983 28.198C110.927 28.3446 110.863 28.482 110.789 28.6103C110.624 29.0408 110.417 29.3294 110.169 29.476C109.929 29.6501 109.598 29.6455 109.175 29.4622C108.954 29.3798 108.761 29.2653 108.596 29.1187C108.449 28.9813 108.357 28.8393 108.32 28.6927C108.2 28.3354 108.343 27.8636 108.747 27.2773C109.023 26.7918 109.373 26.3566 109.796 25.9719C110.044 25.752 110.371 25.5275 110.776 25.2985L110.845 25.7108L110.941 26.3566L110.996 26.6864C111.015 26.8055 111.024 26.8788 111.024 26.9063C111.07 26.888 111.098 26.9017 111.107 26.9475C111.144 27.1857 111.098 27.5155 110.969 27.9369L110.927 28.1018C110.937 28.1293 110.946 28.1476 110.955 28.1568L110.983 28.198ZM112.804 16.9023C112.804 16.9023 112.809 16.9161 112.818 16.9435L112.832 16.9848L112.859 17.0397L112.832 17.0122L112.776 16.9985C112.758 16.9893 112.753 16.9756 112.763 16.9573L112.79 16.9298L112.804 16.9023ZM118.833 22.77C118.778 22.7242 118.742 22.6922 118.723 22.6738C118.668 22.6189 118.686 22.6005 118.778 22.6189C117.711 22.1058 116.401 21.8814 114.846 21.9455C114.358 21.973 113.839 22.0326 113.287 22.1242C113.25 21.7486 113.227 21.4417 113.218 21.2035L113.204 20.9836C113.186 20.6813 113.176 20.3423 113.176 19.9667L113.19 18.8674C113.19 18.4643 113.199 18.1482 113.218 17.9192L113.232 17.7268L113.259 17.5619C113.268 17.4428 113.273 17.3741 113.273 17.3558C113.291 17.365 113.278 17.3558 113.232 17.3283L113.149 17.2733L113.066 17.2184C113.075 17.1634 113.057 17.1176 113.011 17.081C113.075 17.081 113.13 17.0993 113.176 17.1359L113.245 17.1909L113.328 17.2733L113.397 17.3695L113.452 17.452C113.489 17.5253 113.517 17.5711 113.535 17.5894C113.581 17.6627 113.623 17.681 113.659 17.6444C113.761 17.5711 113.83 17.3879 113.866 17.0947C113.866 16.9939 113.908 16.9298 113.991 16.9023L114.032 16.8748C114.041 16.8657 114.05 16.8473 114.06 16.8199C114.069 16.7649 114.041 16.6779 113.977 16.5588C114.17 16.8153 114.289 17.1405 114.335 17.5344C114.363 17.5436 114.368 17.484 114.349 17.3558C114.331 17.2184 114.294 17.0855 114.239 16.9573C114.211 16.8932 114.179 16.829 114.142 16.7649L114.101 16.6824L114.06 16.6137C114.014 16.5313 114.023 16.5038 114.087 16.5313C114.354 16.9435 114.483 17.365 114.473 17.7955C114.51 17.7589 114.529 17.6581 114.529 17.4932C114.529 17.3191 114.501 17.1497 114.446 16.9848C114.427 16.9023 114.395 16.8153 114.349 16.7237L114.294 16.6137L114.239 16.5038C114.165 16.3756 114.138 16.3068 114.156 16.2977C114.22 16.3526 114.285 16.4534 114.349 16.6C114.423 16.7466 114.473 16.8932 114.501 17.0397C114.575 17.4428 114.621 17.649 114.639 17.6581C114.657 17.6673 114.662 17.6215 114.653 17.5207C114.653 17.4199 114.644 17.3146 114.625 17.2046C114.68 17.4428 114.717 17.6993 114.736 17.9742L114.749 18.1253V18.249C114.759 18.3315 114.768 18.391 114.777 18.4276C114.786 18.5467 114.818 18.5696 114.874 18.4964C114.947 18.3956 115.012 18.194 115.067 17.8917C115.067 18.1024 115.025 18.3589 114.943 18.6613L114.818 19.046L114.763 19.2247L114.722 19.3896C114.749 19.3163 114.777 19.2476 114.805 19.1834L114.887 18.9361L114.832 19.1422L114.777 19.3483L114.874 19.2384C114.966 19.0369 115.03 18.8445 115.067 18.6613C115.039 18.817 114.993 18.9911 114.929 19.1834C115.03 19.0643 115.117 18.9315 115.191 18.7849C115.513 18.0337 115.609 17.4062 115.481 16.9023C115.333 16.2794 115.035 15.7801 114.584 15.4045C114.023 14.9098 113.374 14.7265 112.638 14.8548C112.307 14.9098 112.004 15.0105 111.728 15.1571C111.691 15.1846 111.636 15.2258 111.562 15.2808C111.479 15.3358 111.42 15.3816 111.383 15.4182C111.3 15.4915 111.226 15.5648 111.162 15.6381C111.061 15.748 110.964 15.8854 110.872 16.0503C110.753 16.2794 110.656 16.513 110.583 16.7512C110.555 16.8428 110.527 16.939 110.5 17.0397L110.445 17.3283C110.38 17.6398 110.334 17.9788 110.307 18.3452C110.297 18.4735 110.288 18.6246 110.279 18.7987L110.265 19.2384L110.251 19.4171V19.5407L110.238 19.6644V20.1591C110.238 20.4523 110.247 20.7592 110.265 21.0798L110.307 21.0661L110.348 21.0386C110.376 21.0294 110.399 21.0661 110.417 21.1485C110.435 21.2859 110.445 21.4371 110.445 21.602V22.028C110.426 22.3944 110.44 22.6876 110.486 22.9074L110.583 22.9349L110.596 23.0723C109.658 23.5579 108.812 24.1305 108.058 24.7901C107.496 25.2939 107.046 25.7978 106.705 26.3017C106.457 26.6681 106.273 27.0162 106.154 27.346C105.988 27.7949 105.91 28.2621 105.919 28.7477C105.937 28.9767 105.983 29.2149 106.057 29.4622C106.167 29.8012 106.324 30.1081 106.526 30.3829C106.968 30.9967 107.588 31.4731 108.389 31.8121C108.895 32.0228 109.387 32.1281 109.865 32.1281C110.481 32.1373 111.052 31.9816 111.576 31.6609C112.431 31.1479 113.071 30.328 113.494 29.2012C113.834 28.2392 113.945 27.2865 113.825 26.3429C113.788 26.0131 113.742 25.642 113.687 25.2298L113.604 24.6939L113.535 24.1854C113.498 23.8831 113.462 23.5945 113.425 23.3197C113.535 23.3105 113.687 23.2922 113.88 23.2647L114.101 23.2372L114.322 23.2098C114.644 23.164 114.814 23.1227 114.832 23.0861C114.906 22.9029 115.085 22.7471 115.37 22.6189C115.582 22.5273 115.807 22.4631 116.046 22.4265C116.378 22.3715 116.75 22.3624 117.164 22.399C117.55 22.454 117.941 22.5731 118.337 22.7563L118.613 22.88C118.668 22.9074 118.746 22.9487 118.847 23.0036C119.013 23.0953 119.119 23.1456 119.165 23.1548C119.321 23.2006 119.261 23.109 118.985 22.88L118.833 22.77Z" fill="#F8F8F8"/>
<path fill-rule="evenodd" clip-rule="evenodd" d="M123.238 23.9162L122.882 24.3711L121.678 25.7771C121.596 25.8782 121.336 26.2319 121.336 26.2319C121.336 26.2319 119.821 27.5755 122.39 29.4575C124.041 30.643 125.587 31.5987 127.029 32.3246C128.799 33.216 130.441 33.7904 131.955 34.0477C133.707 34.3418 135.321 34.2085 136.799 33.6479C136.662 33.7215 136.658 33.749 136.786 33.7307C136.895 33.7123 137.059 33.6709 137.278 33.6066L137.415 33.5652L137.552 33.5239C137.661 33.4871 137.734 33.4642 137.771 33.455C137.899 33.4182 137.894 33.4458 137.757 33.5377C137.648 33.6112 137.474 33.6985 137.237 33.7996C136.964 33.919 136.676 34.0247 136.375 34.1166C135.782 34.2912 135.093 34.4153 134.309 34.4888C133.643 34.5623 132.963 34.5945 132.27 34.5853C132.142 34.5761 132.005 34.5715 131.859 34.5715C131.759 34.5623 131.636 34.5577 131.49 34.5577C131.189 34.5393 130.984 34.5301 130.874 34.5301C130.217 34.5026 129.788 34.5393 129.588 34.6404C129.56 34.6496 129.433 34.622 129.205 34.5577C128.958 34.4934 128.68 34.4015 128.37 34.282C127.75 34.0431 127.084 33.7352 126.372 33.3585C126.536 33.5331 126.44 33.5744 126.085 33.4825C125.765 33.3906 125.327 33.2206 124.771 32.9725L124.388 32.8071L124.018 32.6417C123.708 32.5038 123.489 32.4074 123.361 32.3522C122.933 32.1684 122.723 32.1271 122.732 32.2282C122.312 31.9433 121.861 31.6216 121.377 31.2633L120.666 30.7394L119.913 30.1605L119.735 30.0227L119.557 29.8848C119.192 30.8313 118.9 31.7825 118.681 32.7382L118.627 32.9312L115.63 32.4074L116.191 29.1818L116.095 29.0577C116.15 28.5248 116.264 27.8447 116.437 27.0177L116.533 26.5352L116.643 26.0252C116.715 25.6484 116.775 25.2992 116.82 24.9776C116.848 24.7846 116.843 24.6927 116.807 24.7019L116.779 24.7295L116.752 24.7432C116.734 24.7708 116.72 24.78 116.711 24.7708C116.83 24.1459 116.975 23.4475 117.149 22.6756L117.628 20.6217C117.974 19.1422 118.307 17.7821 118.627 16.5415C119.42 13.4722 120.21 10.7613 120.994 8.40874C121.14 7.96764 121.578 6.97056 122.308 5.41752C122.463 5.14184 122.622 4.87074 122.787 4.60424L122.39 5.62429C122.536 5.25671 122.7 4.87074 122.882 4.4664L123.06 4.23207L122.814 4.81101L122.595 5.38995C122.668 5.21535 122.759 4.9948 122.869 4.7283L123.006 4.41126L123.073 4.27496C123.009 4.43525 122.932 4.62772 122.841 4.85236L122.691 5.23833L122.527 5.62429C122.271 6.25837 122.084 6.74542 121.966 7.08543C122.212 6.50649 122.39 6.13431 122.499 5.9689C122.6 5.82187 122.627 5.85862 122.581 6.07917C122.545 6.27216 122.271 7.22328 121.76 8.93254C121.842 8.66604 121.934 8.39495 122.034 8.11926C122.153 7.79763 122.217 7.646 122.226 7.66438C122.253 7.74708 122.134 8.15143 121.87 8.8774L121.706 9.31851C121.642 9.48392 121.592 9.61717 121.555 9.71825C121.446 10.0031 121.382 10.2007 121.364 10.311C121.382 10.3661 121.546 9.9434 121.856 9.04282C122.011 8.57415 122.125 8.23413 122.198 8.02277C122.326 7.69195 122.417 7.49897 122.472 7.44383C122.399 7.63681 122.326 7.86195 122.253 8.11926L122.048 8.7947C121.865 9.40121 121.724 9.84691 121.624 10.1318C121.614 10.3615 121.728 10.0812 121.966 9.29094L122.034 9.0566L122.116 8.82227C122.162 8.65685 122.203 8.52361 122.239 8.42252C122.331 8.15602 122.385 8.03656 122.404 8.06413C122.175 8.73497 121.938 9.46554 121.692 10.2558C121.865 9.82393 121.988 9.63095 122.061 9.6769L122.102 9.70447C122.121 9.71366 122.139 9.71366 122.157 9.70447C122.203 9.6769 122.262 9.58041 122.335 9.415L122.54 9.02903L122.65 8.83605L122.759 8.64307C122.914 8.36738 123.019 8.20197 123.074 8.14683C123.238 7.98142 123.156 8.50982 122.828 9.73204C122.782 9.9434 122.668 10.3661 122.486 11.0002C122.458 11.1197 122.417 11.2667 122.362 11.4413L122.226 11.8962C122.116 12.2913 122.025 12.6176 121.952 12.8749L122.581 11.2897C122.39 12.1811 122.121 13.4998 121.774 15.2458L120.693 20.1806C120.602 20.5849 120.479 21.1547 120.324 21.8899L120.132 22.7445L119.94 23.5853L119.968 23.544L120.638 22.7307L121.323 21.9037L122.034 21.0766C123.302 19.643 124.429 18.623 125.414 18.0165C125.808 17.7803 126.195 17.5945 126.577 17.459V20.3804C126.35 20.5401 126.112 20.7308 125.866 20.9525C125.41 21.3661 124.899 21.9037 124.333 22.5653C124.014 22.9053 123.672 23.2867 123.307 23.7094V23.737V23.7783C123.298 23.8151 123.275 23.861 123.238 23.9162ZM123.073 4.27496L123.074 4.27342L123.129 4.13574C123.112 4.17908 123.093 4.22549 123.073 4.27496Z" fill="#F8F8F8"/>
<path d="M131.603 34.3784C130.998 35.6541 130.283 36.6519 129.457 37.3718C128.99 37.7727 128.467 38.1235 127.889 38.4242C127.541 38.5974 127.261 38.7204 127.05 38.7933C126.766 38.8844 126.477 38.9482 126.183 38.9846C125.55 39.0484 124.959 38.9755 124.409 38.7659C123.785 38.5381 123.363 38.1964 123.143 37.7408C122.923 37.349 122.909 36.907 123.102 36.415C123.294 35.932 123.606 35.481 124.037 35.0618C124.633 34.4878 125.422 34.0139 126.403 33.6403C127.22 33.3214 128.127 33.0936 129.127 32.9569C129.045 32.884 129.196 32.7883 129.581 32.6699C129.939 32.5514 130.361 32.4603 130.847 32.3965L131.191 32.3418L131.507 32.3008C131.773 32.2644 131.952 32.2416 132.043 32.2325C132.355 32.1778 132.419 32.1049 132.236 32.0138L132.401 32.0275L132.552 32.0411L132.456 32.3145L132.36 32.5742C132.066 33.3214 131.814 33.9228 131.603 34.3784ZM141.769 36.9207L141.714 36.7704C141.668 36.661 141.641 36.5836 141.632 36.538C141.586 36.4104 141.613 36.415 141.714 36.5517C141.081 35.3762 140.251 34.3647 139.224 33.5173C138.261 32.6972 137.143 32.0502 135.868 31.5764L135.716 31.5354L135.565 31.4807C135.703 31.016 135.817 30.6105 135.909 30.2643C136.184 29.2346 136.482 27.9771 136.803 26.4918C136.904 26.018 137.014 25.4849 137.133 24.8926C137.207 24.5281 137.308 24.0133 137.436 23.3481C137.702 22.0086 137.899 21.0473 138.028 20.4641C138.138 20.2272 138.225 19.9903 138.289 19.7533L138.179 19.726L138.193 19.7123L135.538 19.1109V19.1246L135.428 19.0973L135.235 19.808L135.125 20.054C134.951 20.3639 134.753 20.6919 134.533 21.0382C134.212 21.5484 133.864 22.0542 133.488 22.5553L133.213 22.938C132.14 24.3322 131.177 25.3983 130.324 26.1364L130.214 26.2321L130.09 26.3141C130.136 25.9223 130.209 25.3892 130.31 24.7149L130.448 23.8675L130.572 23.0201C130.406 23.4939 130.237 23.9586 130.063 24.4142C130.42 22.9836 130.608 22.0587 130.627 21.6396C130.691 21.0564 130.709 20.6372 130.682 20.3821C130.663 20.1725 130.627 20.1178 130.572 20.2181C130.535 20.2727 130.466 20.4368 130.365 20.7101L130.296 20.8878L130.228 21.0655L130.09 21.4209C130.035 21.5667 129.989 21.6487 129.952 21.6669C129.934 21.676 129.92 21.6806 129.911 21.6806L129.856 21.6532C129.774 21.6259 129.677 21.799 129.567 22.1726C129.714 21.4528 129.82 20.8195 129.884 20.2727C129.865 20.2545 129.842 20.3593 129.815 20.5871L129.787 20.7648L129.76 20.9425C129.742 21.0974 129.723 21.2295 129.705 21.3389C129.659 21.6396 129.613 21.8628 129.567 22.0086C129.531 22.1817 129.503 22.2 129.485 22.0633C129.632 21.5074 129.737 20.742 129.801 19.767C129.774 19.8126 129.737 19.9811 129.691 20.2727L129.664 20.4778L129.622 20.6964C129.595 20.8696 129.572 21.0199 129.554 21.1475C129.407 21.9403 129.306 22.3002 129.251 22.2273C129.26 22.1544 129.297 21.9904 129.361 21.7352L129.402 21.5576L129.444 21.3799L129.54 21.0108C129.668 20.4094 129.696 20.0677 129.622 19.9857C129.613 19.9766 129.586 20.1087 129.54 20.3821L129.526 20.5598L129.499 20.7375C129.471 20.8832 129.453 20.9972 129.444 21.0792C129.517 20.5415 129.549 20.0449 129.54 19.5893C129.531 19.1975 129.499 18.915 129.444 18.7419C129.388 18.6052 129.352 18.587 129.333 18.6872C129.315 18.7328 129.274 19.038 129.21 19.603C129.246 19.202 129.242 18.8239 129.196 18.4685C129.15 18.0494 129.054 17.7532 128.907 17.5801V17.5937C128.971 17.6758 129.031 17.8261 129.086 18.0448C129.141 18.2362 129.178 18.4184 129.196 18.5915C129.141 18.1906 129.045 17.8762 128.907 17.6484L128.921 17.8124C128.985 17.9856 129.04 18.2225 129.086 18.5232C129.049 18.2863 128.994 18.0767 128.921 17.8944C128.93 18.0767 128.93 18.2589 128.921 18.4412C128.93 18.7783 128.889 19.1975 128.797 19.6987L128.742 19.9857L128.673 20.2591C128.636 20.4778 128.609 20.6327 128.591 20.7238C128.508 21.1976 128.398 21.7444 128.26 22.364L128.054 23.1977L127.834 24.0452L127.614 24.9336C127.531 25.2617 127.463 25.5669 127.408 25.8494C127.334 26.2594 127.288 26.6103 127.27 26.9019C127.252 27.1661 127.252 27.403 127.27 27.6126L127.284 27.722L127.311 27.8313C127.33 27.9406 127.353 28.0363 127.38 28.1183C127.463 28.3644 127.6 28.6058 127.793 28.8428L127.889 28.9384L127.972 29.0204L128.013 29.0478L128.027 29.0751L128.123 29.1435L128.329 29.2801C128.54 29.3986 128.765 29.4806 129.003 29.5262C129.205 29.5717 129.407 29.5854 129.609 29.5672C129.764 29.5581 129.93 29.5353 130.104 29.4988C130.361 29.435 130.599 29.3485 130.819 29.2391C130.957 29.1753 131.14 29.0751 131.369 28.9384C131.855 28.6286 132.397 28.1912 132.993 27.6263C133.286 27.3438 133.612 27.0021 133.969 26.6012C133.85 27.157 133.662 27.9224 133.405 28.8974L133.295 29.3485C133.295 29.4032 133.3 29.4487 133.309 29.4852L133.323 29.5125L133.337 29.5398C133.217 29.9408 133.084 30.3554 132.938 30.7837L132.924 30.8657C131.447 30.6743 129.957 30.7108 128.453 30.975C127.142 31.2028 125.94 31.5855 124.849 32.1231C123.455 32.8157 122.396 33.6768 121.671 34.7065C121.442 35.0345 121.258 35.3762 121.121 35.7316C120.928 36.169 120.823 36.6155 120.804 37.0711C120.759 38.0643 121.089 38.9345 121.795 39.6817C122.327 40.2649 123.006 40.7068 123.831 41.0075C124.537 41.2627 125.28 41.3811 126.059 41.3629C126.188 41.3538 126.307 41.3447 126.417 41.3356C126.564 41.3174 126.706 41.2991 126.844 41.2809C127.201 41.2171 127.559 41.126 127.917 41.0075C128.118 40.9438 128.32 40.8663 128.522 40.7752L128.811 40.6385L129.1 40.5018C129.549 40.274 129.971 40.0234 130.365 39.7501C131.328 39.094 132.154 38.2784 132.841 37.3034C133.428 36.4924 134.029 35.3899 134.643 33.9957C134.845 33.5401 135.033 33.0708 135.207 32.5879C135.262 32.597 135.299 32.597 135.317 32.5879C135.418 32.5332 135.556 32.5059 135.73 32.5059C135.95 32.4967 136.221 32.5286 136.542 32.6015C137 32.72 137.441 32.884 137.862 33.0936C138.477 33.4034 139.082 33.818 139.678 34.3374C140.229 34.8386 140.715 35.4445 141.136 36.1553C141.219 36.3011 141.306 36.456 141.398 36.62C141.471 36.7476 141.545 36.8888 141.618 37.0437C141.783 37.3718 141.879 37.5586 141.907 37.6041C141.989 37.7317 142.017 37.7363 141.989 37.6178C141.971 37.5085 141.916 37.3262 141.824 37.0711L141.769 36.9207Z" fill="#F8F8F8"/>
</g>
</svg>
