<svg width="62" height="11" viewBox="0 0 62 11" fill="none" xmlns="http://www.w3.org/2000/svg">
<path opacity="0.3" d="M61.6745 4.40213C61.8556 4.02961 61.7004 3.5808 61.3279 3.3997L55.2573 0.448471C54.8847 0.267369 54.4359 0.422547 54.2548 0.795072C54.0737 1.1676 54.2289 1.6164 54.6014 1.7975L59.9976 4.42082L57.3743 9.81695C57.1931 10.1895 57.3483 10.6383 57.7209 10.8194C58.0934 11.0005 58.5422 10.8453 58.7233 10.4728L61.6745 4.40213ZM0.727187 4.77284C18.5899 11.7482 40.769 11.8629 61.2451 4.78304L60.7549 3.36539C40.578 10.3418 18.7684 10.2077 1.27281 3.3756L0.727187 4.77284Z" fill="white"/>
</svg>
