<svg width="126" height="32" viewBox="0 0 126 32" fill="none" xmlns="http://www.w3.org/2000/svg">
<path opacity="0.8" d="M13.48 13.914C16.574 13.524 19.278 11.392 19.278 8.532C19.278 4.97 16.184 2.5 9.294 2.5C3.21 2.5 0.48 4.892 0.48 7.466C0.48 9.026 1.52 10.066 3.21 10.066C4.536 10.066 5.186 9.234 5.186 8.61C5.186 8.454 5.16 8.376 5.16 8.376C5.16 8.376 5.004 8.454 4.718 8.454C4.068 8.454 3.678 7.986 3.678 7.258C3.678 5.776 5.134 3.93 9.086 3.93C13.844 3.956 15.664 5.698 15.664 8.376C15.664 11.418 13.688 13.316 10.62 13.316H9.632L10.542 8.09C10.88 6.088 10.516 5.256 8.592 5.256C7.526 5.256 7.11 5.516 7.11 5.516C7.11 5.516 7.396 6.166 7.084 7.96L5.134 19.166C4.796 21.168 5.16 22 7.084 22C8.15 22 8.566 21.74 8.566 21.74C8.566 21.74 8.28 21.09 8.592 19.27L9.372 14.746H10.854C12.024 14.746 12.518 15.474 12.882 16.878L13.376 18.776C13.896 20.778 15.092 22 16.938 22C19.278 22 21.254 19.608 21.436 18.152C21.488 17.736 21.332 17.476 20.942 17.476C20.63 18.126 19.59 19.738 18.394 19.738C17.562 19.738 17.068 19.062 16.678 17.788L16.236 16.358C15.82 15.006 14.754 14.2 13.48 13.914ZM20.3917 16.28C20.2097 17.32 20.1577 18.178 20.1577 18.932C20.1577 20.934 21.4317 22 22.7837 22C24.4737 22 25.6957 20.804 25.7997 19.764C25.8517 19.296 25.6697 19.01 25.3057 19.01C25.3057 19.01 25.0717 19.738 24.3177 19.738C23.6417 19.738 23.2257 19.192 23.5377 17.32L24.5257 11.574C24.8377 9.754 24.6037 9 22.6017 9C21.6397 9 21.2497 9.234 21.2497 9.234C21.2497 9.234 21.5097 9.832 21.2237 11.47L20.3917 16.28ZM22.1337 5.1C22.1337 6.01 22.7577 6.66 23.6937 6.66C24.8377 6.66 25.5657 5.776 25.5657 4.866C25.5657 3.93 24.9417 3.228 23.9537 3.228C22.9657 3.228 22.1337 4.034 22.1337 5.1ZM29.0648 9C27.7908 9 27.0108 9.832 27.0108 10.638C27.0108 10.768 27.0368 10.872 27.0628 10.976C27.0628 10.976 27.2708 10.846 27.5568 10.846C28.0508 10.846 28.3108 11.106 28.5968 12.068L29.8448 15.994L27.9468 17.372C26.0488 18.75 25.5548 19.66 25.5548 20.622C25.5548 21.454 26.0228 22 27.0628 22C27.6868 22 28.0508 21.766 28.0508 21.766C27.9728 21.506 27.9468 21.246 27.9468 21.012C27.9468 19.712 28.4668 18.516 29.7148 17.632L30.2348 17.268L30.5728 18.282C31.4048 20.882 32.7308 22 34.8628 22C37.2288 22 39.3868 19.972 39.7248 18.152C39.8028 17.684 39.5688 17.476 39.2308 17.476C38.3728 19.062 37.4108 19.738 36.2148 19.738C35.0448 19.738 34.2908 19.01 33.7448 17.398L33.0168 15.266L35.2788 13.628C37.1768 12.25 37.6708 11.34 37.6708 10.378C37.6708 9.546 37.2028 9 36.1628 9C35.5388 9 35.1748 9.234 35.1748 9.234C35.2528 9.494 35.2788 9.754 35.2788 9.988C35.2788 11.288 34.7588 12.484 33.5108 13.368L32.6008 14.018L31.5868 10.924C31.0928 9.416 30.4428 9 29.0648 9ZM44.5882 22C48.5662 22 51.0622 19.296 51.2962 18.152C51.4002 17.684 51.2182 17.476 50.8802 17.476C50.1782 18.568 48.5922 19.946 45.8102 19.946C43.6002 19.946 42.2482 18.438 42.0922 16.488C46.6682 15.63 49.3982 14.07 49.3982 11.704C49.3982 10.378 48.3322 9 45.6802 9C42.2222 9 38.7122 11.782 38.7122 16.384C38.7122 19.894 41.1822 22 44.5882 22ZM45.7062 10.3C46.2522 10.3 46.6162 10.664 46.6162 11.21C46.6162 12.926 45.2902 14.512 42.1182 15.266C42.4042 12.016 44.2242 10.3 45.7062 10.3ZM55.3567 13.576C54.4987 13.134 54.0827 12.692 54.0827 11.938C54.0827 11.028 54.7847 10.3 56.2147 10.3C57.6707 10.3 58.4247 11.288 58.4247 12.51C58.4247 12.978 58.2947 13.264 58.2947 13.264C58.2947 13.264 58.6587 13.628 59.5427 13.628C60.4527 13.628 61.2587 13.056 61.2587 12.068C61.2587 10.716 59.7507 9 56.5267 9C52.8347 9 51.0147 10.716 51.0147 12.822C51.0147 14.564 52.0287 15.396 53.2767 16.072L55.8247 17.424C56.7607 17.918 57.0987 18.438 57.0987 19.062C57.0987 19.92 56.3967 20.7 54.9147 20.7C53.4327 20.674 52.7567 19.764 52.7567 18.49C52.7567 18.022 52.8867 17.736 52.8867 17.736C52.8867 17.736 52.5227 17.372 51.6387 17.372C50.7287 17.372 49.9227 17.944 49.9227 18.932C49.9227 20.284 51.3267 22 54.6547 22C58.4247 22 60.1667 20.232 60.1667 18.178C60.1667 16.8 59.4907 15.734 57.5927 14.746L55.3567 13.576ZM72.2581 3.93C74.4681 3.93 75.4821 5.048 75.4821 6.504C75.4821 8.402 74.1821 9.13 74.1821 9.13C74.1821 9.13 74.6501 9.806 75.8981 9.806C77.4841 9.806 78.4461 8.74 78.4461 6.92C78.4461 4.346 75.9761 2.5 72.2841 2.5C67.7601 2.5 65.3161 5.152 65.3161 8.038C65.3161 9.91 66.1221 11.392 68.3061 12.64L71.0881 14.226C72.8301 15.214 73.4801 16.15 73.4801 17.45C73.4801 19.14 72.0241 20.57 69.6841 20.57C67.6821 20.57 66.5641 19.504 66.5641 17.944C66.5641 16.618 67.4741 15.786 67.4741 15.786C67.4741 15.786 67.1361 15.11 65.8881 15.11C64.6401 15.11 63.6001 15.942 63.6001 17.814C63.6001 20.232 65.9661 22 69.5281 22C74.2601 22 76.8081 19.374 76.8081 16.488C76.8081 14.668 75.9761 13.134 73.7661 11.834L70.4641 9.91C69.2681 9.208 68.6441 8.168 68.6441 7.102C68.6441 5.204 70.1261 3.93 72.2581 3.93ZM79.4503 16.28C79.2683 17.32 79.2163 18.23 79.2163 18.75C79.2163 20.83 80.4643 22 82.2583 22C84.7803 22 86.8083 19.53 87.0683 18.152C87.1463 17.684 86.9123 17.476 86.5743 17.476C85.8983 18.88 84.7283 19.738 83.6883 19.738C82.7523 19.738 82.3103 18.984 82.5703 17.45L85.1183 2.994C85.4303 1.174 85.1963 0.419999 83.1943 0.419999C82.2323 0.419999 81.8423 0.653999 81.8423 0.653999C81.8423 0.653999 82.1023 1.252 81.8163 2.89L79.4503 16.28ZM91.9417 22C95.9197 22 98.4157 19.296 98.6497 18.152C98.7537 17.684 98.5717 17.476 98.2337 17.476C97.5317 18.568 95.9457 19.946 93.1637 19.946C90.9537 19.946 89.6017 18.438 89.4457 16.488C94.0217 15.63 96.7517 14.07 96.7517 11.704C96.7517 10.378 95.6857 9 93.0337 9C89.5757 9 86.0657 11.782 86.0657 16.384C86.0657 19.894 88.5357 22 91.9417 22ZM93.0597 10.3C93.6057 10.3 93.9697 10.664 93.9697 11.21C93.9697 12.926 92.6437 14.512 89.4717 15.266C89.7577 12.016 91.5777 10.3 93.0597 10.3ZM103.672 22C107.65 22 110.146 19.296 110.38 18.152C110.484 17.684 110.302 17.476 109.964 17.476C109.262 18.568 107.676 19.946 104.894 19.946C102.684 19.946 101.332 18.438 101.176 16.488C105.752 15.63 108.482 14.07 108.482 11.704C108.482 10.378 107.416 9 104.764 9C101.306 9 97.7962 11.782 97.7962 16.384C97.7962 19.894 100.266 22 103.672 22ZM104.79 10.3C105.336 10.3 105.7 10.664 105.7 11.21C105.7 12.926 104.374 14.512 101.202 15.266C101.488 12.016 103.308 10.3 104.79 10.3ZM114.363 11.574C114.675 9.728 114.441 9 112.439 9C111.477 9 111.087 9.234 111.087 9.234C111.087 9.234 111.347 9.832 111.061 11.47L108.097 28.526C107.785 30.346 108.019 31.1 110.021 31.1C110.983 31.1 111.373 30.866 111.373 30.866C111.373 30.866 111.113 30.268 111.399 28.63L112.777 20.726C113.505 21.506 114.545 22 115.793 22C118.315 22 120.707 20.05 121.721 16.8C123.853 16.592 125.543 15.136 125.699 14.226C125.751 13.836 125.569 13.576 125.231 13.576C125.231 13.576 124.009 15.37 122.007 15.604C122.137 14.928 122.215 14.2 122.215 13.42C122.215 10.716 120.889 9 118.471 9C116.833 9 115.377 10.066 114.285 12.042L114.363 11.574ZM117.535 14.044C117.535 14.902 117.873 15.604 118.497 16.098C117.847 18.568 116.443 20.232 115.013 20.232C113.973 20.232 113.375 19.66 113.037 19.114L113.219 18.126C113.687 15.76 114.415 14.226 115.143 13.056C116.027 11.652 116.781 11.002 117.561 11.002C118.237 11.002 118.679 11.392 118.835 12.276C118.003 12.458 117.535 13.186 117.535 14.044Z" fill="white"/>
</svg>
