<svg width="16" height="32" viewBox="0 0 16 32" fill="none" xmlns="http://www.w3.org/2000/svg">
<path opacity="0.5" d="M13.937 31.6207C14.048 31.7407 14.1807 31.8361 14.3273 31.9013C14.4739 31.9664 14.6313 32 14.7904 32C14.9495 32 15.107 31.9664 15.2536 31.9013C15.4002 31.8361 15.5329 31.7407 15.6438 31.6207C15.8714 31.3746 15.9987 31.0447 15.9987 30.7012C15.9987 30.3578 15.8714 30.0279 15.6438 29.7818L2.88731 16.0027L15.6438 2.22092C15.7587 2.09711 15.8492 1.95069 15.9103 1.79002C15.9714 1.62935 16.0019 1.45758 15.9999 1.28452C15.998 1.11145 15.9637 0.940488 15.899 0.781387C15.8343 0.622283 15.7405 0.47816 15.6229 0.357246C15.5109 0.241979 15.3784 0.151105 15.233 0.0898203C15.0876 0.0285372 14.9322 -0.00195563 14.7756 9.09371e-05C14.619 0.00213942 14.4644 0.0366891 14.3205 0.101758C14.1766 0.166827 14.0463 0.261138 13.937 0.379298L0.371602 15.0406C0.133346 15.298 1.42995e-06 15.6433 1.39852e-06 16.0027C1.3671e-06 16.3622 0.133346 16.7075 0.371602 16.9649L13.937 31.6207Z" fill="white"/>
</svg>
